<svg xmlns="http://www.w3.org/2000/svg" viewBox="0 0 225 292.73"><defs><style>.a{fill:#eae3da;}.b{fill:#2b2c3d;}.c{fill:#e3dcc1;}.d{fill:#ed5439;}.e{fill:#f29331;}.f{fill:#efc30a;}.g{fill:#c64538;}</style></defs><title>IT_Rome</title><path class="a" d="M136.31,101.06c0-5.8,4.47-12.91,9.49-15.81l86.54-49.83c5-2.9,13.33-2.9,18.35,0l85.92,49.83c5,2.9,8.69,10,8.69,15.81V242.35c0,5.8-3.63,12.91-8.65,15.81L250.54,308c-5,2.9-13.12,2.9-18.14,0l-86.66-49.83c-5-2.9-9.43-10-9.43-15.81Z" transform="translate(-128.31 -25.34)"/><path class="b" d="M241.56,33.25a18.78,18.78,0,0,1,9.16,2.17l85.91,49.83c5,2.9,8.68,10,8.68,15.81V242.35c0,5.8-3.63,12.91-8.65,15.81L250.54,308a20,20,0,0,1-18.11,0l-86.68-49.83c-5-2.9-9.45-10-9.45-15.81V101.06c0-5.8,4.47-12.91,9.49-15.81l86.54-49.83a19,19,0,0,1,9.21-2.17m0-7.91a26.62,26.62,0,0,0-13.11,3.23L141.81,78.4c-7.61,4.39-13.5,14.13-13.5,22.66V242.35c0,8.54,5.87,18.28,13.46,22.66l86.67,49.84a28.08,28.08,0,0,0,26.14,0L340.65,265c7.3-4.21,12.66-14,12.66-22.65V101.06c0-8.69-5.36-18.43-12.68-22.66l-86-49.83a26.3,26.3,0,0,0-13-3.24Z" transform="translate(-128.31 -25.34)"/><path class="a" d="M137.31,102.11c0-5.8,4-12.91,9-15.81l86.29-49.83c5-2.9,13.2-2.9,18.23,0L337.18,86.3c5,2.9,9.13,10,9.13,15.81V243.4c0,5.8-4.13,12.91-9.15,15.81L250.79,309c-5,2.9-13.24,2.9-18.26,0l-86.22-49.83c-5-2.9-9-10-9-15.81Z" transform="translate(-128.31 -25.34)"/><path class="c" d="M137.31,101.06c0-5.8,4-12.91,9-15.81l86.29-49.83c5-2.9,13.2-2.9,18.23,0l86.36,49.83c5,2.9,9.13,10,9.13,15.81V242.35c0,5.8-4.13,12.91-9.15,15.81L250.79,308c-5,2.9-13.24,2.9-18.26,0l-86.22-49.83c-5-2.9-9-10-9-15.81Z" transform="translate(-128.31 -25.34)"/><path class="d" d="M307.53,161.83h29.77v74.93c0,5.33-3.55,11.86-8.16,14.53l-79.26,45.79c-4.61,2.66-12.11,2.66-16.72,0l-79.41-45.79c-4.61-2.66-8.45-9.2-8.45-14.53V161.83H307.53Z" transform="translate(-128.31 -25.34)"/><rect class="e" x="17" y="113.49" width="192" height="26"/><rect class="f" x="17" y="91.49" width="192" height="22"/><polygon class="d" points="113.17 21.54 116.52 28.33 124.02 29.42 118.59 34.71 119.87 42.17 113.17 38.65 106.47 42.17 107.75 34.71 102.33 29.42 109.82 28.33 113.17 21.54"/><polygon class="d" points="42.6 61.95 47.21 63.51 51.12 60.6 51.06 65.47 55.03 68.28 50.38 69.73 48.94 74.38 46.12 70.41 41.25 70.47 44.16 66.56 42.6 61.95"/><polygon class="d" points="184.8 61.95 183.23 66.56 186.15 70.47 181.27 70.41 178.46 74.38 177.01 69.73 172.36 68.28 176.34 65.47 176.28 60.6 180.18 63.51 184.8 61.95"/><path class="g" d="M242.07,299.17a17.7,17.7,0,0,1-8.79-2l-79.46-45.83c-4.61-2.66-8.51-9.24-8.51-14.56V161.83h97V295.29Z" transform="translate(-128.31 -25.34)"/><path class="b" d="M229.09,121.93c28.25-10.61,48.51,1.74,48.51,1.74a19.69,19.69,0,0,1,2.28-2.24l23.68-18.5C289.75,82.7,261.14,80,261.14,80l-7.21,9.54L255.47,79c-43.16-7.15-65.61,21.7-65.61,21.7l5.39,8.62-9.33-5.17c-16.77,20.47-13.57,51.3-13.57,51.3l28-1.24C202,146.39,208,129.87,229.09,121.93Z" transform="translate(-128.31 -25.34)"/><path class="b" d="M286.54,144.78C285.06,142,276.68,133,276.68,133A4.86,4.86,0,0,1,275,130.3h0c-62.07-19-69.89,28.42-69.9,28.48-.36,3.39-.79,8.06-.92,12.21-.25,7.65-15.54,3.21-21.46,6.66s5.92,18.5,13.07,27.87,22.44,6.17,29.6,1.73,3.21-21.21,7.89-29.35,15.78-5.67,19.48-3.21,2,35.56,2,35.56,3.45,10.85,12.33,10.85,13.32-2.22,10.41-6.66-3.25-14.06-.54-19-5.67-23-5.67-23,15-6.91,19.48-10.11-.74-19.24-.74-19.24Z" transform="translate(-128.31 -25.34)"/><path class="c" d="M199.17,252.53l-3.53-5.34h-3.76v5.34h-5.24V231.1h10.42c4.39,0,7.68,3.76,7.68,8.44a7.09,7.09,0,0,1-3.83,6.53l4.72,6.46Zm-7.29-10.06h4.35a3,3,0,0,0,3.2-2.93,3.17,3.17,0,0,0-3.17-3.17h-4.39Z" transform="translate(-128.31 -25.34)"/><path class="c" d="M236.48,241.85a11.3,11.3,0,1,1-11.28-11.31A11.27,11.27,0,0,1,236.48,241.85Zm-4.95,0a6.35,6.35,0,1,0-6.33,6.33A6.36,6.36,0,0,0,231.53,241.85Z" transform="translate(-128.31 -25.34)"/><path class="c" d="M270,231.1v21.44h-5.14V241.58l-5,10.95h-2.24l-4.95-10.85v10.85h-5.18V231.1h5.18v.1l6.07,12,6.17-12.14v0Z" transform="translate(-128.31 -25.34)"/><path class="c" d="M286,235.71v3.83h8.67v4.58H286v3.83h11v4.58H280.84V231.1H297v4.62Z" transform="translate(-128.31 -25.34)"/></svg>