<svg xmlns="http://www.w3.org/2000/svg" viewBox="0 0 326 265"><defs><style>.a{fill:#efc30a;}.b{fill:#52b1ba;}.c{fill:#2b2c3d;}.d{fill:#4d591a;}.e{fill:#e3dcc1;}.f{fill:#ed5439;}.g{fill:#c5b980;}.h{fill:#9f9560;}.i{fill:#ffc7d4;}</style></defs><title>IT_Cinque</title><rect class="a" x="9.81" y="11.63" width="305.08" height="243.29" rx="13.59" ry="13.59"/><rect class="b" x="228.42" y="31.35" width="68.06" height="103.56"/><rect class="c" x="225.91" y="28.37" width="73.08" height="4.39"/><path class="a" d="M322.31,88.67h-7.62V82.55a3.81,3.81,0,0,1,3.81-3.81h0a3.81,3.81,0,0,1,3.81,3.81Z" transform="translate(-78.31 -38.83)"/><path class="a" d="M337.15,88.67h-7.62V82.55a3.81,3.81,0,0,1,3.81-3.81h0a3.81,3.81,0,0,1,3.81,3.81Z" transform="translate(-78.31 -38.83)"/><path class="a" d="M352,88.67h-7.62V82.55a3.81,3.81,0,0,1,3.81-3.81h0A3.81,3.81,0,0,1,352,82.55Z" transform="translate(-78.31 -38.83)"/><path class="a" d="M366.84,88.67h-7.62V82.55A3.81,3.81,0,0,1,363,78.73h0a3.81,3.81,0,0,1,3.81,3.81Z" transform="translate(-78.31 -38.83)"/><path class="c" d="M12,165.68H316.77a0,0,0,0,1,0,0V233a13.18,13.18,0,0,1-13.18,13.18H25.13A13.18,13.18,0,0,1,12,233V165.68A0,0,0,0,1,12,165.68Z"/><path class="b" d="M12,174.38H316.77a0,0,0,0,1,0,0v67.27a13.18,13.18,0,0,1-13.18,13.18H25.13A13.18,13.18,0,0,1,12,241.65V174.38A0,0,0,0,1,12,174.38Z"/><path class="d" d="M260.22,133.8c-48.62,0-88,41-88,88H348.24C348.24,174.83,308.83,133.8,260.22,133.8Z" transform="translate(-78.31 -38.83)"/><path class="e" d="M211.24,193.37c-15.72,0-28.46,13.46-28.46,28.46H239.7C239.7,206.83,227,193.37,211.24,193.37Z" transform="translate(-78.31 -38.83)"/><path class="f" d="M156.82,51.42l-59.75-.19L89,59l-.89,56.61a49.91,49.91,0,0,0,68.73-64.15Z" transform="translate(-78.31 -38.83)"/><path class="g" d="M176.83,204C167,204,159,212.83,159,221.83H194.7C194.7,212.83,186.7,204,176.83,204Z" transform="translate(-78.31 -38.83)"/><rect class="c" x="11.53" y="184.37" width="303.84" height="8.96"/><path class="h" d="M393.35,152.88a87.88,87.88,0,0,0-53.84-18.82c-48.62,0-88.26,40.76-88.26,87.76H393.31" transform="translate(-78.31 -38.83)"/><polygon class="f" points="277.31 78.92 238.52 78.92 238.52 70.32 277.31 54.76 277.31 78.92"/><polygon class="i" points="277.31 169.71 238.52 169.71 238.52 75.28 277.31 59.72 277.31 169.71"/><circle class="c" cx="257.91" cy="93.36" r="5.09"/><circle class="c" cx="257.91" cy="114.71" r="5.09"/><circle class="c" cx="257.91" cy="136.05" r="5.09"/><path class="d" d="M342.36,208.68H330.08v-13a6.14,6.14,0,0,1,6.14-6.14h0a6.14,6.14,0,0,1,6.14,6.14Z" transform="translate(-78.31 -38.83)"/><polygon class="c" points="179.72 47.69 127.66 47.69 127.66 27.75 179.72 40.6 179.72 47.69"/><polygon class="f" points="179.72 134.91 127.66 134.91 127.66 32.32 179.72 45.17 179.72 134.91"/><circle class="c" cx="142.67" cy="58.4" r="5.09"/><circle class="c" cx="164.28" cy="58.4" r="5.09"/><circle class="c" cx="142.14" cy="80.36" r="5.09"/><circle class="c" cx="163.75" cy="80.36" r="5.09"/><circle class="c" cx="142.36" cy="101.97" r="5.09"/><circle class="c" cx="163.97" cy="101.97" r="5.09"/><path class="i" d="M238.14,173.72H225.86v-13a6.14,6.14,0,0,1,6.14-6.14h0a6.14,6.14,0,0,1,6.14,6.14Z" transform="translate(-78.31 -38.83)"/><rect class="e" x="179.69" y="31.35" width="38.79" height="103.56"/><path class="f" d="M285.24,89.06H269.56A3.56,3.56,0,0,1,266,85.5h0a3.56,3.56,0,0,1,3.56-3.56h15.68a3.56,3.56,0,0,1,3.56,3.56h0A3.56,3.56,0,0,1,285.24,89.06Z" transform="translate(-78.31 -38.83)"/><path class="d" d="M258.34,69.82a3.82,3.82,0,0,1,7.64,0" transform="translate(-78.31 -38.83)"/><path class="d" d="M266.11,69.82a3.82,3.82,0,0,1,7.64,0" transform="translate(-78.31 -38.83)"/><path class="d" d="M273.88,69.82a3.82,3.82,0,0,1,7.64,0" transform="translate(-78.31 -38.83)"/><path class="d" d="M281.66,69.82a3.82,3.82,0,0,1,7.64,0" transform="translate(-78.31 -38.83)"/><path class="d" d="M289.43,69.82a3.82,3.82,0,0,1,7.64,0" transform="translate(-78.31 -38.83)"/><rect class="c" x="186.51" y="61.88" width="52.07" height="107.83"/><path class="f" d="M297,208.68H284.71v-13a6.14,6.14,0,0,1,6.14-6.14h0a6.14,6.14,0,0,1,6.14,6.14Z" transform="translate(-78.31 -38.83)"/><path class="a" d="M283,173.7h-7.62v-6.13a3.81,3.81,0,0,1,3.81-3.81h0a3.81,3.81,0,0,1,3.81,3.81Z" transform="translate(-78.31 -38.83)"/><path class="a" d="M307.54,173.7h-7.62v-6.13a3.81,3.81,0,0,1,3.81-3.81h0a3.81,3.81,0,0,1,3.81,3.81Z" transform="translate(-78.31 -38.83)"/><rect class="b" x="186.45" y="115.85" width="52.18" height="3.16"/><rect class="b" x="186.45" y="140.8" width="52.18" height="3.16"/><path class="a" d="M283,148.93h-7.62V142.8a3.81,3.81,0,0,1,3.81-3.81h0A3.81,3.81,0,0,1,283,142.8Z" transform="translate(-78.31 -38.83)"/><path class="a" d="M307.54,148.93h-7.62V142.8a3.81,3.81,0,0,1,3.81-3.81h0a3.81,3.81,0,0,1,3.81,3.81Z" transform="translate(-78.31 -38.83)"/><rect class="b" x="186.45" y="91.08" width="52.18" height="3.16"/><rect class="b" x="186.45" y="116.03" width="52.18" height="3.16"/><path class="a" d="M283,124h-7.62v-6.13a3.81,3.81,0,0,1,3.81-3.81h0a3.81,3.81,0,0,1,3.81,3.81Z" transform="translate(-78.31 -38.83)"/><path class="a" d="M307.54,124h-7.62v-6.13a3.81,3.81,0,0,1,3.81-3.81h0a3.81,3.81,0,0,1,3.81,3.81Z" transform="translate(-78.31 -38.83)"/><rect class="b" x="186.45" y="66.13" width="52.18" height="3.16"/><rect class="b" x="186.45" y="91.08" width="52.18" height="3.16"/><rect class="c" x="277.31" y="87.1" width="34.51" height="82.61"/><path class="a" d="M379.11,208.68H366.83v-13a6.14,6.14,0,0,1,6.14-6.14h0a6.14,6.14,0,0,1,6.14,6.14Z" transform="translate(-78.31 -38.83)"/><path class="e" d="M294.85,124.94h0a3.81,3.81,0,0,1,3.81,3.81v6.13a0,0,0,0,1,0,0H291a0,0,0,0,1,0,0v-6.13a3.81,3.81,0,0,1,3.81-3.81Z"/><rect class="f" x="277.27" y="140.8" width="34.58" height="3.16"/><path class="e" d="M294.85,100.17h0a3.81,3.81,0,0,1,3.81,3.81v6.13a0,0,0,0,1,0,0H291a0,0,0,0,1,0,0V104A3.81,3.81,0,0,1,294.85,100.17Z"/><rect class="b" x="277.27" y="91.08" width="34.58" height="3.16"/><rect class="f" x="277.27" y="116.03" width="34.58" height="3.16"/><rect class="f" x="277.27" y="91.08" width="34.58" height="3.16"/><path class="b" d="M404.31,279.69a24.13,24.13,0,0,1-24.13,24.13H102.44a24.13,24.13,0,0,1-24.13-24.13V63a24.13,24.13,0,0,1,24.13-24.13H380.17A24.13,24.13,0,0,1,404.31,63Zm-10-216.27a13.59,13.59,0,0,0-13.59-13.59H102.9A13.59,13.59,0,0,0,89.31,63.42V279.23a13.59,13.59,0,0,0,13.59,13.59H380.71a13.59,13.59,0,0,0,13.59-13.59Z" transform="translate(-78.31 -38.83)"/><path class="c" d="M127,253.84c-4.23,0-6.45,2.88-6.45,7.83s1.82,8.43,6.61,8.43a10.73,10.73,0,0,0,2.38-.26c.53-.17.63-.43.63-1v-2.38l3.21.23v5.36a14.63,14.63,0,0,1-6.51,1.32c-6.65,0-10.48-3.74-10.48-11.31,0-8.6,5.16-11.47,10.35-11.47a15.56,15.56,0,0,1,6.41,1.29v5.29l-3.21.23v-2.31c0-.56-.07-.83-.59-1A10,10,0,0,0,127,253.84Z" transform="translate(-78.31 -38.83)"/><path class="c" d="M140.82,253.7l-1.75-.1V251h7.64v2.51l-1,.1c-.6.07-.83.26-.83,1v15.67l1.75.1V273H139v-2.51l1-.1c.6-.07.86-.23.86-1.06Z" transform="translate(-78.31 -38.83)"/><path class="c" d="M171.43,273H167.6l-9.72-16h-.07v13.26l1.82.1V273h-7.5V270.5l1.06-.13c.56-.07.79-.23.79-.92V253.7l-1.72-.1V251h5.85l9.46,15.7h.07v-13l-1.82-.1V251h7.47v2.51l-1,.1c-.63.1-.83.26-.83,1Z" transform="translate(-78.31 -38.83)"/><path class="c" d="M190.57,272.81v.13c3.44.33,5.46,2.35,8.53,2.35a7,7,0,0,0,1.39-.13l-.43,3.27a10.59,10.59,0,0,1-1.42.1c-4.3,0-7.07-3.21-11-3.21a9.66,9.66,0,0,0-2,.2l.4-2.25c-4.79-.73-7.6-4.56-7.6-11.24,0-8.5,5.12-11.44,9.85-11.44,5,0,9.26,3,9.26,11.44C197.55,267.89,195.37,271.72,190.57,272.81ZM188.16,270c4.1,0,5.22-3.9,5.22-7.87,0-3.37-.93-8.1-5.32-8.1-4.07,0-5.45,3.9-5.45,7.83C182.61,265.64,183.47,270,188.16,270Z" transform="translate(-78.31 -38.83)"/><path class="c" d="M221.16,266.53c0,4.33-3.37,6.84-8.3,6.84-5.42,0-8.27-2.18-8.27-7.41V253.74l-1.75-.13V251h7.6v2.51l-1,.1c-.56.07-.79.23-.79,1V266c0,3.31,1.85,4.3,4.46,4.3s4.27-1.32,4.27-4.13V253.7l-1.65-.1V251H223v2.51l-1,.1c-.6.07-.86.23-.86,1Z" transform="translate(-78.31 -38.83)"/><path class="c" d="M228.16,270.5l.76-.1c.89-.1,1.06-.23,1.06-1.12V253.74l-1.75-.13V251h15v5.09l-3.21.27v-1.55c0-.59-.2-.86-.86-.86H234v6.28h7.9v3H234V270h5.55c.66,0,.79-.23.79-.89v-1.72l3.21.26V273H228.16Z" transform="translate(-78.31 -38.83)"/><path class="c" d="M264.5,253.94h-3c-.66,0-.83.3-.83.86v2l-3.17-.26V251h18.08v5.52l-3.21.26v-2c0-.56-.13-.89-.83-.89h-3v16.33l2.35.1V273h-8.79V270.5l1.49-.13c.73,0,.92-.26.92-1Z" transform="translate(-78.31 -38.83)"/><path class="c" d="M280.17,270.5l.76-.1c.89-.1,1.06-.23,1.06-1.12V253.74l-1.75-.13V251h15v5.09l-3.21.27v-1.55c0-.59-.2-.86-.86-.86H286v6.28h7.9v3H286V270h5.55c.66,0,.79-.23.79-.89v-1.72l3.21.26V273H280.17Z" transform="translate(-78.31 -38.83)"/><path class="c" d="M301,270.5l1-.13c.63-.07.79-.23.79-1v-15.6L301,253.6V251h9.12c4.86,0,8,1.59,8,6,0,3.54-2.08,5.12-4.46,5.85A3.73,3.73,0,0,1,316,265l2.64,5.22,1.52.1V273h-7.7V270.5l1.16-.1c.56-.07.69-.46.4-1l-1.75-3.44a2.38,2.38,0,0,0-2.55-1.62h-2.94v6l1.52.1V273H301Zm9.06-9c2.48,0,4-1.39,4-4,0-3-1.69-3.54-4.93-3.54h-2.28v7.57Z" transform="translate(-78.31 -38.83)"/><path class="c" d="M324.87,270.5l1-.13c.63-.07.79-.23.79-1v-15.6l-1.75-.13V251h9.12c4.86,0,8,1.59,8,6,0,3.54-2.08,5.12-4.46,5.85a3.73,3.73,0,0,1,2.35,2.22l2.64,5.22,1.52.1V273h-7.7V270.5l1.16-.1c.56-.07.69-.46.4-1l-1.75-3.44a2.38,2.38,0,0,0-2.55-1.62h-2.94v6l1.52.1V273h-7.37Zm9.06-9c2.48,0,4-1.39,4-4,0-3-1.69-3.54-4.93-3.54h-2.28v7.57Z" transform="translate(-78.31 -38.83)"/><path class="c" d="M348.77,270.5l.76-.1c.89-.1,1.06-.23,1.06-1.12V253.74l-1.75-.13V251h15v5.09l-3.21.27v-1.55c0-.59-.2-.86-.86-.86h-5.19v6.28h7.9v3h-7.9V270h5.55c.66,0,.79-.23.79-.89v-1.72l3.21.26V273H348.77Z" transform="translate(-78.31 -38.83)"/><circle class="e" cx="298.5" cy="222.39" r="3.4"/><circle class="e" cx="25.76" cy="222.39" r="3.4"/><path class="e" d="M379.54,297.41H101.64a16.77,16.77,0,0,1-16.76-16.76V64.55A16.77,16.77,0,0,1,101.64,47.8H379.54a16.77,16.77,0,0,1,16.76,16.76v216.1A16.77,16.77,0,0,1,379.54,297.41ZM101.64,54.12A10.44,10.44,0,0,0,91.21,64.55v216.1a10.44,10.44,0,0,0,10.43,10.43H379.54A10.44,10.44,0,0,0,390,280.65V64.55a10.44,10.44,0,0,0-10.43-10.43Z" transform="translate(-78.31 -38.83)"/><path class="d" d="M258.34,69.82a3.82,3.82,0,0,1,7.64,0" transform="translate(-78.31 -38.83)"/><path class="d" d="M266.11,69.82a3.82,3.82,0,0,1,7.64,0" transform="translate(-78.31 -38.83)"/><path class="d" d="M273.88,69.82a3.82,3.82,0,0,1,7.64,0" transform="translate(-78.31 -38.83)"/><path class="d" d="M281.66,69.82a3.82,3.82,0,0,1,7.64,0" transform="translate(-78.31 -38.83)"/><path class="d" d="M289.43,69.82a3.82,3.82,0,0,1,7.64,0" transform="translate(-78.31 -38.83)"/></svg>