<svg xmlns="http://www.w3.org/2000/svg" viewBox="0 0 273.86 273.86"><defs><style>.a{fill:#ed5439;}.b{fill:#2b2c3d;}.c{fill:#52b1ba;}.d{fill:#e3dcc1;}.e{fill:#f29331;}.f{fill:#efc30a;}.g{fill:#efc30d;}.h{fill:#c64538;}.i{fill:#c5b980;}.j{fill:#9f9560;}</style></defs><title>IT_Florence</title><path class="a" d="M240.81,49.72a122,122,0,1,1-122,122,122,122,0,0,1,122-122m0-7.91A129.5,129.5,0,1,0,291.37,52a129.08,129.08,0,0,0-50.56-10.21Z" transform="translate(-103.88 -34.77)"/><circle class="b" cx="136.87" cy="136.61" r="125.92"/><polygon class="b" points="249.62 197.76 24.58 197.76 18.25 176.15 257 176.15 249.62 197.76"/><polygon class="c" points="245.93 211.99 29.32 211.99 22.99 190.38 253.31 190.38 245.93 211.99"/><path class="d" d="M240.81,42.68a129,129,0,1,1-129,129,129,129,0,0,1,129-129m0-7.91a136.53,136.53,0,1,0,53.3,10.76,136.07,136.07,0,0,0-53.3-10.76Z" transform="translate(-103.88 -34.77)"/><circle class="d" cx="136.87" cy="129.53" r="61.9"/><path class="a" d="M240.81,49.72a122,122,0,1,1-122,122,122,122,0,0,1,122-122m0-7.91A129.5,129.5,0,1,0,291.37,52a129.08,129.08,0,0,0-50.56-10.21Z" transform="translate(-103.88 -34.77)"/><path class="d" d="M153.57,122.31a.77.77,0,0,0-.78.1,2.42,2.42,0,0,0-.65,1.09l-4.71,12.82,4.91,1.8,2.85-7.76a4,4,0,0,0,.29-1.28.72.72,0,0,0-.55-.7l.26-.71,5.7,2.1-.26.71q-.91-.33-1.33,0a2.6,2.6,0,0,0-.71,1.13l-2.85,7.76,7.68,2.82a.61.61,0,0,0,.66-.14,1.92,1.92,0,0,0,.49-.78l.71.26-2.47,6.73-.71-.26q.38-1-.33-1.29l-18-6.61q-.71-.26-1.09.77l-.71-.26,6.75-18.36a2.1,2.1,0,0,0,.17-1.26.88.88,0,0,0-.57-.59l.26-.71,5.22,1.92Z" transform="translate(-103.88 -34.77)"/><path class="d" d="M185.19,109.47q-.5-.38-.81-.12a5.05,5.05,0,0,0-.69.77l-12.16,16-.6-.46q.77-1,.16-1.47l-15.23-11.6q-.6-.46-1.37.55l-.6-.46,4.4-5.77.6.46q-.72.94-.11,1.4l13.35,10.17,8.48-11.13a1.7,1.7,0,0,0,.39-1,.94.94,0,0,0-.4-.8l.46-.6,4.59,3.5Z" transform="translate(-103.88 -34.77)"/><path class="d" d="M185.19,80.86a16.94,16.94,0,0,1,4.34-2,14.67,14.67,0,0,1,4.81-.64A11.31,11.31,0,0,1,199,79.41a10.67,10.67,0,0,1,5.49,8.45,11.29,11.29,0,0,1-.8,4.72,13.61,13.61,0,0,1-2.57,4.09,18,18,0,0,1-7.92,5.15,13.59,13.59,0,0,1-4.78.7,11.32,11.32,0,0,1-4.64-1.18,10.67,10.67,0,0,1-5.49-8.45,11.3,11.3,0,0,1,.8-4.72A14.66,14.66,0,0,1,181.61,84,16.94,16.94,0,0,1,185.19,80.86Zm2.12,3.25a10.6,10.6,0,0,0-2.41,2.17,9.75,9.75,0,0,0-1.63,2.79,7.55,7.55,0,0,0-.47,3.1,6.64,6.64,0,0,0,3.45,5.3,7.55,7.55,0,0,0,3,.82,9.78,9.78,0,0,0,3.21-.36,10.39,10.39,0,0,0,5.37-3.49,9.8,9.8,0,0,0,1.63-2.79,7.57,7.57,0,0,0,.47-3.1,6.64,6.64,0,0,0-3.45-5.3,7.58,7.58,0,0,0-3-.82,9.79,9.79,0,0,0-3.21.36A10.58,10.58,0,0,0,187.3,84.11Z" transform="translate(-103.88 -34.77)"/><path class="d" d="M222.14,66.31a17.26,17.26,0,0,1,3.66-.42,8.29,8.29,0,0,1,3,.52A5.25,5.25,0,0,1,231,68a6.69,6.69,0,0,1,1.26,2.86,5.43,5.43,0,0,1-.72,4.51,8.85,8.85,0,0,1-3.92,2.86l7.16,6.66a1.14,1.14,0,0,0,.79.35,3.54,3.54,0,0,0,.74-.07l.16.74-7.71,1.65-.16-.74a1.56,1.56,0,0,0,.61-.26.38.38,0,0,0,.2-.39,1,1,0,0,0-.27-.44q-.22-.23-.65-.62l-5.91-5.46-5.9,1.26,1.57,7.34a.64.64,0,0,0,.39.5,1.85,1.85,0,0,0,1,0l.16.74L212.67,91l-.16-.74q1.2-.26,1-1l-4-18.72q-.16-.74-1.35-.49l-.16-.74Zm1,9.88a11.53,11.53,0,0,0,2.43-.76,4.46,4.46,0,0,0,1.43-1,2.44,2.44,0,0,0,.62-1.15,3.18,3.18,0,0,0-.52-2.43,2.43,2.43,0,0,0-1-.79,4.48,4.48,0,0,0-1.7-.31,11.57,11.57,0,0,0-2.52.3l-7.13,1.52,1.3,6.1Z" transform="translate(-103.88 -34.77)"/><path class="d" d="M263.78,71.4a.78.78,0,0,0-.26-.74,2.45,2.45,0,0,0-1.2-.39l-13.54-1.81-.69,5.18,8.19,1.09a3,3,0,0,0,1.33-.06q.49-.17.62-1.13l.75.1-.87,6.52-.75-.1q.13-1-.3-1.29a2.59,2.59,0,0,0-1.26-.44l-8.19-1.09L246.83,83l14,1.86a1.7,1.7,0,0,0,1.06-.16,1,1,0,0,0,.5-.74l.75.1-.76,5.72-.75-.1q.08-.63-.3-.76a5.12,5.12,0,0,0-1-.22l-19.48-2.6.1-.75a.8.8,0,0,0,.55-.12.69.69,0,0,0,.31-.53l2.53-19a.69.69,0,0,0-.15-.59.81.81,0,0,0-.5-.26l.1-.75,19.06,2.55a2.11,2.11,0,0,0,1.27-.11.88.88,0,0,0,.45-.68l.75.1-.74,5.52Z" transform="translate(-103.88 -34.77)"/><path class="d" d="M267.06,89.49a.69.69,0,0,0,1.06-.3l8.95-16.92a.69.69,0,0,0-.35-1l.35-.67,6.37,3.37-.35.67c-.2-.1-.36,0-.5.22a2.48,2.48,0,0,0,.19,1.44L287.61,93l6.27-11.85q.36-.67-.61-1.18l.35-.67,5.63,3-.36.67a.69.69,0,0,0-1.06.3l-8.95,16.92a.69.69,0,0,0,.35,1l-.36.67-6-3.19.36-.67c.32.17.54.14.66-.08a2,2,0,0,0-.14-1.17l-5.1-17.86-6.54,12.38q-.35.67.5,1.12l-.35.67-5.52-2.92Z" transform="translate(-103.88 -34.77)"/><path class="d" d="M310.61,121a1.2,1.2,0,0,1-.14-.19,1.23,1.23,0,0,0-.14-.19,3.94,3.94,0,0,0-1.17-.57q-1-.38-2.44-1.07a21.41,21.41,0,0,1-3-1.78,15.91,15.91,0,0,1-2.89-2.62,19,19,0,0,1-2.84-4.29,12.72,12.72,0,0,1-1.26-4.63,10.28,10.28,0,0,1,.71-4.55,11.59,11.59,0,0,1,7.43-6.46,10.44,10.44,0,0,1,4.64-.09A13.14,13.14,0,0,1,314,96.4a18.08,18.08,0,0,1,3.89,3.38,20.72,20.72,0,0,1,2.3,3.17q.89,1.54,1.46,2.78a16.89,16.89,0,0,1,.81,2,3.76,3.76,0,0,0,.35.92.43.43,0,0,0,.39.13l.41,0,0,.81-6,.87-.05-.51.18-.18.18-.24a1.65,1.65,0,0,0,.16-1.26,8.67,8.67,0,0,0-.58-2,19.27,19.27,0,0,0-1.07-2.2,11.58,11.58,0,0,0-1.32-1.9,11.35,11.35,0,0,0-2.61-2.23,8.44,8.44,0,0,0-3-1.16,7.24,7.24,0,0,0-3.06.11,7.62,7.62,0,0,0-4.87,4.23,7.22,7.22,0,0,0-.54,3,8.43,8.43,0,0,0,.74,3.1,11.31,11.31,0,0,0,1.84,2.89,13.45,13.45,0,0,0,2.09,1.93,17.06,17.06,0,0,0,2.38,1.51,8.93,8.93,0,0,0,2.17.82,1.62,1.62,0,0,0,1.41-.14.79.79,0,0,0,.27-.46l.64.22-1.55,5Z" transform="translate(-103.88 -34.77)"/><path class="d" d="M334.71,140.08a.78.78,0,0,0,.51-.59,2.43,2.43,0,0,0-.25-1.24l-5.11-12.67-4.85,2,3.09,7.66a3,3,0,0,0,.7,1.13q.39.34,1.29,0l.28.7-6.1,2.46-.28-.7q.9-.36,1-.9a2.59,2.59,0,0,0-.23-1.32l-3.09-7.66-5.4,2.18,5.27,13.06a1.71,1.71,0,0,0,.66.85.94.94,0,0,0,.89.07l.28.7L318,147.91l-.28-.7c.39-.16.56-.37.51-.64a5.14,5.14,0,0,0-.31-1l-7.35-18.22.7-.28a.81.81,0,0,0,.37.42.69.69,0,0,0,.62,0L330,120.33a.69.69,0,0,0,.44-.43.81.81,0,0,0,0-.56l.7-.28,7.19,17.83a2.11,2.11,0,0,0,.72,1.05.88.88,0,0,0,.82.06l.28.7L335,140.78Z" transform="translate(-103.88 -34.77)"/><path class="e" d="M240.81,293.44a121.68,121.68,0,0,0,101.75-54.62H139.05A121.69,121.69,0,0,0,240.81,293.44Z" transform="translate(-103.88 -34.77)"/><path class="f" d="M331.85,176.83a2.11,2.11,0,0,1-2.11-2.11v-.65a7.79,7.79,0,0,1,7.78-7.78h.65a2.11,2.11,0,0,1,0,4.22h-.65a3.57,3.57,0,0,0-3.57,3.57v.65A2.11,2.11,0,0,1,331.85,176.83Z" transform="translate(-103.88 -34.77)"/><path class="f" d="M331.85,176.83a2.11,2.11,0,0,1-2.11-2.11v-.65a3.57,3.57,0,0,0-3.57-3.57h-.65a2.11,2.11,0,0,1,0-4.22h.65a7.79,7.79,0,0,1,7.78,7.78v.65A2.11,2.11,0,0,1,331.85,176.83Z" transform="translate(-103.88 -34.77)"/><path class="f" d="M326.17,170.51h-.65a2.11,2.11,0,0,1,0-4.22h.65a3.57,3.57,0,0,0,3.57-3.57v-.65a2.11,2.11,0,1,1,4.22,0v.65A7.79,7.79,0,0,1,326.17,170.51Z" transform="translate(-103.88 -34.77)"/><path class="f" d="M338.17,170.51h-.65a7.79,7.79,0,0,1-7.78-7.78v-.65a2.11,2.11,0,1,1,4.22,0v.65a3.57,3.57,0,0,0,3.57,3.57h.65a2.11,2.11,0,0,1,0,4.22Z" transform="translate(-103.88 -34.77)"/><circle class="f" cx="228.1" cy="133.63" r="1.32"/><path class="f" d="M148.79,176.83a2.11,2.11,0,0,1-2.11-2.11v-.65a7.79,7.79,0,0,1,7.78-7.78h.65a2.11,2.11,0,1,1,0,4.22h-.65a3.57,3.57,0,0,0-3.57,3.57v.65A2.11,2.11,0,0,1,148.79,176.83Z" transform="translate(-103.88 -34.77)"/><path class="f" d="M148.79,176.83a2.11,2.11,0,0,1-2.11-2.11v-.65a3.57,3.57,0,0,0-3.57-3.57h-.65a2.11,2.11,0,0,1,0-4.22h.65a7.79,7.79,0,0,1,7.78,7.78v.65A2.11,2.11,0,0,1,148.79,176.83Z" transform="translate(-103.88 -34.77)"/><path class="f" d="M143.12,170.51h-.65a2.11,2.11,0,0,1,0-4.22h.65a3.57,3.57,0,0,0,3.57-3.57v-.65a2.11,2.11,0,1,1,4.22,0v.65A7.79,7.79,0,0,1,143.12,170.51Z" transform="translate(-103.88 -34.77)"/><path class="f" d="M155.11,170.51h-.65a7.79,7.79,0,0,1-7.78-7.78v-.65a2.11,2.11,0,1,1,4.22,0v.65a3.57,3.57,0,0,0,3.57,3.57h.65a2.11,2.11,0,1,1,0,4.22Z" transform="translate(-103.88 -34.77)"/><circle class="f" cx="45.04" cy="133.63" r="1.32"/><circle class="g" cx="218.79" cy="158.75" r="3.51"/><circle class="g" cx="30.11" cy="150.84" r="3.51"/><circle class="g" cx="163.02" cy="203.13" r="2.28" transform="translate(-199.77 139.99) rotate(-45)"/><circle class="g" cx="347.96" cy="187.46" r="2.28" transform="translate(-134.51 266.21) rotate(-45)"/><circle class="g" cx="305.04" cy="209.1" r="2.28" transform="translate(-162.39 242.16) rotate(-45)"/><path class="a" d="M243.93,113.69l11.84,32.89a1.16,1.16,0,0,1-1.09,1.55h-28a1.16,1.16,0,0,1-1.09-1.55l11.84-32.89A3.43,3.43,0,0,1,243.93,113.69Z" transform="translate(-103.88 -34.77)"/><path class="h" d="M238,143.65c-24.83,1.69-44.52,25.71-44.52,55.13l0,24,23.42,0C217.16,162.67,233.84,146.71,238,143.65Z" transform="translate(-103.88 -34.77)"/><path class="h" d="M288.13,198.78c0-29.49-19.79-53.57-44.7-55.14,4.16,3,20.88,18.93,21.07,79l23.6,0Z" transform="translate(-103.88 -34.77)"/><path class="a" d="M243.43,143.64c-.86-.05-1.73-.08-2.6-.08s-1.87,0-2.79.1c-4.19,3.06-20.88,19-21.05,79.1l47.52-.07C264.31,162.57,247.59,146.66,243.43,143.64Z" transform="translate(-103.88 -34.77)"/><rect class="i" x="113.09" y="182.05" width="47.49" height="57.56"/><rect class="j" x="89.64" y="182.05" width="23.44" height="57.56"/><ellipse class="i" cx="101.06" cy="197.68" rx="5.18" ry="7.76"/><rect class="j" x="160.55" y="182.05" width="23.69" height="57.56"/><rect class="i" x="112.86" y="213.44" width="47.52" height="31.57"/><rect class="j" x="89.47" y="213.44" width="23.61" height="31.57"/><rect class="j" x="160.65" y="213.44" width="23.39" height="31.57"/><ellipse class="i" cx="172.35" cy="197.68" rx="5.18" ry="7.76"/><circle class="j" cx="136.46" cy="197.68" r="7.76"/><path class="f" d="M240.81,293.29a121.4,121.4,0,0,0,86.08-35.47H154.73A121.4,121.4,0,0,0,240.81,293.29Z" transform="translate(-103.88 -34.77)"/></svg>