<svg xmlns="http://www.w3.org/2000/svg" xmlns:xlink="http://www.w3.org/1999/xlink" viewBox="0 0 232.84 292.72"><defs><style>.a{fill:none;}.b{fill:#ed5439;}.c{fill:#2b2c3d;}.d{fill:#4d591a;}.e{clip-path:url(#a);}.f{fill:#e3dcc1;}.g{fill:#c5b980;}.h{fill:#efc30a;}</style><clipPath id="a" transform="translate(-128.31 -25.34)"><path class="a" d="M136.31,101.23c0-5.8,4.58-12.91,9.6-15.81L232.5,35.6c5-2.9,13.36-2.9,18.38,0l85.83,49.83c5,2.9,8.6,10,8.6,15.81V242.52c0,5.8-3.52,12.91-8.54,15.81L250.7,308.16c-5,2.9-13.09,2.9-18.11,0l-86.75-49.83c-5-2.9-9.53-10-9.53-15.81Z"/></clipPath></defs><title>IT_Viterbo</title><path class="b" d="M136.31,101.06c0-5.8,4.31-12.91,9.34-15.81L232.1,35.42c5-2.9,13.29-2.9,18.31,0l86.06,49.83c5,2.9,8.83,10,8.83,15.81V242.35c0,5.8-3.79,12.91-8.81,15.81L250.31,308c-5,2.9-13.16,2.9-18.18,0L145.6,258.16c-5-2.9-9.3-10-9.3-15.81Z" transform="translate(-128.31 -25.34)"/><path class="c" d="M241.24,33.25a18.77,18.77,0,0,1,9.16,2.17l86.07,49.83c5,2.9,8.84,10,8.84,15.81V242.35c0,5.8-3.79,12.91-8.81,15.81L250.31,308a20.08,20.08,0,0,1-18.17,0l-86.53-49.83c-5-2.9-9.3-10-9.3-15.81V101.06c0-5.8,4.31-12.91,9.34-15.81L232.1,35.42a18.66,18.66,0,0,1,9.13-2.17m0-7.91a26.62,26.62,0,0,0-13.11,3.23L141.65,78.4c-7.61,4.39-13.34,14.13-13.34,22.66V242.35c0,8.54,5.71,18.28,13.3,22.66l86.59,49.83a28,28,0,0,0,26.08,0L340.5,265c7.3-4.22,12.8-14,12.8-22.65V101.06c0-8.69-5.51-18.43-12.84-22.66L254.35,28.58a26.6,26.6,0,0,0-13.12-3.24Z" transform="translate(-128.31 -25.34)"/><path class="d" d="M345.31,170.83v71.52c0,5.8-3.79,12.91-8.81,15.81L250.31,308c-5,2.9-13.16,2.9-18.18,0L145.6,258.16c-5-2.9-9.3-10-9.3-15.81V170.83" transform="translate(-128.31 -25.34)"/><g class="e"><path class="f" d="M340.39,193.88c-7.7-10.41-15.94-28.12-15.94-56.11H213.51c0,27.73-8.55,45.6-16.36,56.14a5.69,5.69,0,0,1-7.06,1.75L184.7,193a3.31,3.31,0,0,0-4.76,3v16.76H357.68V196a3.31,3.31,0,0,0-4.75-3l-5.51,2.65A5.69,5.69,0,0,1,340.39,193.88Z" transform="translate(-128.31 -25.34)"/><circle class="c" cx="140.5" cy="146.7" r="14.63"/><path class="g" d="M268.81,189.18A17.15,17.15,0,1,1,286,172,17.17,17.17,0,0,1,268.81,189.18Zm0-29.26A12.11,12.11,0,1,0,280.92,172,12.12,12.12,0,0,0,268.81,159.93Z" transform="translate(-128.31 -25.34)"/><rect class="f" x="52.26" y="186.8" width="176.49" height="103.37"/><rect class="c" x="96.59" y="114.1" width="10.93" height="176.07"/><path class="g" d="M238.34,318h-16V136.92h16Zm-10.93-5h5.88V142h-5.88Z" transform="translate(-128.31 -25.34)"/><rect class="c" x="173.49" y="114.1" width="10.93" height="176.07"/><path class="g" d="M315.24,318h-16V136.92h16Zm-10.93-5h5.88V142h-5.88Z" transform="translate(-128.31 -25.34)"/><path class="g" d="M272.8,104.12l63.38,36.33a1.26,1.26,0,0,1-.63,2.35H202.07a1.26,1.26,0,0,1-.63-2.35l63.38-36.33A8,8,0,0,1,272.8,104.12Z" transform="translate(-128.31 -25.34)"/><path class="f" d="M225.27,134.45,266.1,111a5.45,5.45,0,0,1,5.43,0l40.82,23.4a.76.76,0,0,1-.38,1.42H225.65A.76.76,0,0,1,225.27,134.45Z" transform="translate(-128.31 -25.34)"/><path class="g" d="M356.43,221.28H181.19a4.73,4.73,0,0,1-4.73-4.73h0a4.73,4.73,0,0,1,4.73-4.72H356.43a4.73,4.73,0,0,1,4.73,4.72h0A4.73,4.73,0,0,1,356.43,221.28Z" transform="translate(-128.31 -25.34)"/><path class="c" d="M282.08,315.42H256V273.27a13,13,0,0,1,13-13h0a13,13,0,0,1,13,13Z" transform="translate(-128.31 -25.34)"/><path class="c" d="M210.93,315.35h-19V293.28a9.51,9.51,0,0,1,9.51-9.51h0a9.51,9.51,0,0,1,9.51,9.51Z" transform="translate(-128.31 -25.34)"/><circle class="c" cx="73.11" cy="226.12" r="9.45"/><path class="g" d="M201.42,262.53a11.07,11.07,0,1,1,11.07-11.07A11.09,11.09,0,0,1,201.42,262.53Zm0-18.89a7.82,7.82,0,1,0,7.82,7.82A7.83,7.83,0,0,0,201.42,243.64Z" transform="translate(-128.31 -25.34)"/><path class="g" d="M290.8,272.08a2.52,2.52,0,0,1-2.45-1.94,19.49,19.49,0,0,0-37.82,0,2.52,2.52,0,1,1-4.91-1.16,24.53,24.53,0,0,1,47.63,0,2.52,2.52,0,0,1-2.46,3.1Z" transform="translate(-128.31 -25.34)"/><path class="c" d="M345.87,315.35h-19V293.28a9.51,9.51,0,0,1,9.51-9.51h0a9.51,9.51,0,0,1,9.51,9.51Z" transform="translate(-128.31 -25.34)"/><circle class="c" cx="208.05" cy="226.12" r="9.45"/><path class="g" d="M336.36,262.53a11.07,11.07,0,1,1,11.07-11.07A11.09,11.09,0,0,1,336.36,262.53Zm0-18.89a7.82,7.82,0,1,0,7.82,7.82A7.83,7.83,0,0,0,336.36,243.64Z" transform="translate(-128.31 -25.34)"/></g><polygon class="h" points="4.2 81.27 129.1 9.33 180.84 36.3 2.62 140.04 4.2 81.27"/><path class="c" d="M241.24,33.25a18.77,18.77,0,0,1,9.16,2.17l86.07,49.83c5,2.9,8.84,10,8.84,15.81V242.35c0,5.8-3.79,12.91-8.81,15.81L250.31,308a20.08,20.08,0,0,1-18.17,0l-86.53-49.83c-5-2.9-9.3-10-9.3-15.81V101.06c0-5.8,4.31-12.91,9.34-15.81L232.1,35.42a18.66,18.66,0,0,1,9.13-2.17m0-7.91a26.62,26.62,0,0,0-13.11,3.23L141.65,78.4c-7.61,4.39-13.34,14.13-13.34,22.66V242.35c0,8.54,5.71,18.28,13.3,22.66l86.59,49.83a28,28,0,0,0,26.08,0L340.5,265c7.3-4.22,12.8-14,12.8-22.65V101.06c0-8.69-5.51-18.43-12.84-22.66L254.35,28.58a26.6,26.6,0,0,0-13.12-3.24Z" transform="translate(-128.31 -25.34)"/><path class="c" d="M148.39,108.84l17.86,20.89-9.14-25.91,2.77-1.59L170.35,132l-4.42,2.55-20.57-24Z" transform="translate(-128.31 -25.34)"/><path class="c" d="M168.27,97.4l15.49,26.91-3,1.73L165.27,99.13Z" transform="translate(-128.31 -25.34)"/><path class="c" d="M193.83,118.51,179.91,94.33l-5,2.86-1.57-2.73L186.3,87l1.57,2.73-5,2.86,13.92,24.18Z" transform="translate(-128.31 -25.34)"/><path class="c" d="M207.88,90.46l1.55,2.69-6.57,3.79,5.51,9.57,8.07-4.65,1.57,2.73L206.94,111,191.45,84.05l11.07-6.38,1.57,2.73L196,85.05l5.29,9.19Z" transform="translate(-128.31 -25.34)"/><path class="c" d="M214.36,70.86c4.23-2.43,7.24-1.3,9.54,2.7l1.26,2.19c1.71,3,1.73,5.4-.16,7.46,2.88-.69,5,.78,6.61,3.67L234,91.07a7.79,7.79,0,0,0,2.4,2.92l-3,1.75a8.13,8.13,0,0,1-2.38-3l-2.44-4.23c-1.75-3-3.72-3.18-6.22-1.74L220.24,88l6.62,11.49-3,1.73L208.36,74.31ZM220.9,84c2.38-1.37,3.36-3,1.68-5.88l-1.48-2.58c-1.39-2.42-3-3.18-5.24-1.9l-2.92,1.68,5.73,10Z" transform="translate(-128.31 -25.34)"/><path class="c" d="M232.62,60.35c4.19-2.41,7-1.37,9.27,2.59l.73,1.27c1.64,2.85,1.85,5.08-.08,7.16,3-.77,5.23.73,6.93,3.69l1.31,2.27c2.32,4,1.67,7.43-2.52,9.85l-6.19,3.56L226.59,63.82Zm5.84,11.84c2.38-1.37,3.17-2.85,1.55-5.66L239.11,65c-1.37-2.38-2.84-3.07-5-1.83l-3,1.7,5,8.69Zm8.23,12.25c2.19-1.26,2.53-3,1.09-5.49l-1.37-2.38c-1.73-3-3.49-3.31-6.07-1.83l-2.61,1.51,5.78,10Z" transform="translate(-128.31 -25.34)"/><path class="c" d="M248.24,60c-2.37-4.11-1.86-7.94,2.26-10.31s7.72-.91,10.08,3.2l8,13.92c2.35,4.07,1.86,7.94-2.29,10.33s-7.7.85-10-3.22ZM259.3,72.37c1.42,2.46,3.27,3.29,5.43,2s2.37-3.26,1-5.72l-8.19-14.22c-1.39-2.42-3.23-3.31-5.43-2s-2.35,3.3-1,5.72Z" transform="translate(-128.31 -25.34)"/></svg>