<svg xmlns="http://www.w3.org/2000/svg" width="93.719" height="44.796" viewBox="0 0 93.719 44.796">
  <path fill="#1d364a" fill-rule="evenodd" clip-rule="evenodd" d="M75.123 41.246c-.79.248-1.572.666-2.478.958-.888.286-1.798.478-2.815.62-1.006.14-2.075.19-3.154.28-1.002.084-2.023.213-2.984.17-4.305-.196-9.086-.553-13.29-.563-2.682 0-5.36.46-7.77.45-.742 0-1.48-.1-2.197-.22-.83-.14-1.82-.44-2.59-.73-.753-.28-1.218-.56-1.858-.96-.757-.47-1.27-.82-1.915-1.46-.915-.91-1.5-1.77-1.97-3.26-.256-.81-.298-1.33-.227-2.19.067-.8.08-1.63.45-2.19-.95-.32-1.917-.88-2.59-1.69-.715-.85-1.354-2.12-1.183-3.77.186-1.77 1.366-3 2.59-3.77-1.863-.97-3.694-2.73-3.38-5.4.205-1.73 1.08-2.93 1.747-4.28-3.14.34-7.31.49-10.98.51-.69.01-1.4-.19-1.98-.11-.19.03-.56.29-.73.34-.35.11-.79.14-1.24.23-1.19.25-2.6.5-4 .68-1.89.24-3.92.5-5.58.34-.84-.08-1.55-.32-2.25-.68-.65-.32-1.41-.66-1.75-1.18-.2-.29-.4-.96-.57-1.52-.17-.54-.43-1.15-.45-1.58-.07-1.2.96-2.7 1.69-3.27.4-.3 1.04-.61 1.63-.9.55-.26 1.19-.51 1.8-.73 1.25-.45 2.59-.96 3.83-1.24 2.75-.61 5.81-.98 8.67-1.4 5.87-.87 12.44-1.13 18.47-1.57.91-.07 1.88-.21 2.87-.29C41.69.61 44.9.2 47.53.09c3.144-.14 6.075-.094 9.292.053.84.04 1.66.01 2.478.06 2.47.14 4.892.34 7.152.79 3.01.61 5.58 1.65 7.94 2.59.39-.22.428-.66.675-.95.245-.29 1.237-1.03 1.69-1.12 1.794-.353 4.006.154 6.25.28 3.16.18 6.432.24 8.954.114.48.936.47 2.35.68 3.49-.3.118-.49-.253-.67-.394-.22-.176-.46-.337-.67-.508-.44-.35-.86-.77-1.41-.957-.03.325.46.62.74.847.63.506 1.44.914 2.09 1.463.01 1.08.22 1.96.17 3.095-.31-.055-.51-.37-.73-.56-.7-.594-1.47-1.19-2.2-1.854-.7-.65-1.4-1.29-2.08-2.03-.24-.26-.48-.56-.9-.45-.09.32.49.44.57.79.37.11.51.47.79.67 1.38 1.48 2.76 3 4.53 4.14.03.82.08 1.6.06 2.59-.24.07-.39-.2-.56-.34-.49-.4-1.02-.88-1.63-1.24.53 1.01 1.46 1.62 2.2 2.42-.05 1.32.04 2.74.05 4.17-.69-.31-1.1-.9-1.86-1.13-.05-.31-.16-.56-.51-.57-.07.31.31.48.5.67.41.41.75.78 1.24 1.24.22.21.54.43.62.62.31.75-.16 1.84.11 2.81-1.1-.57-1.94-1.4-3.04-1.97.74 1.03 2.02 1.54 2.98 2.36.1.46.12 1 .11 1.58-.36.07-.61-.28-.85-.45-.77-.56-1.66-1.13-2.59-1.58.76.96 2.41 1.53 3.43 2.42.08.99.1 2.01.17 2.87-.62-.24-1.04-.73-1.57-1.07-.51-.34-1.08-.64-1.69-.9.05.34.48.48.73.67.79.59 1.72 1.25 2.53 1.86.05.33.14.89.05 1.18-1.17-.59-2.02-1.51-3.26-2.03 1.01.98 2.25 1.73 3.38 2.59 0 .99.16 2.13.11 2.98-.45.04-.77-.4-1.18-.62-.37-.19-.79-.27-1.12-.51.13.39.67.6 1.07.84.44.27.91.5 1.24.79.15.63-.02 1.56.12 2.2-.94-.24-1.49-.88-2.42-1.13.6.79 1.71 1.07 2.42 1.74V38H91c0 .547.67.39 1.127.395.52.003 1.105-.05 1.523.054.098.48.086 1.32 0 1.8-3.138 0-5.79.24-9.01.28-.676.01-1.43-.08-2.027.22.32.3.83.15 1.24.11 2.958-.25 6.68-.2 9.8-.12.007.31.005.6-.058.84-3.32.06-6.24.06-10.36.06-.52 0-1.196-.11-1.296.5 3.91.16 7.66-.4 11.6-.06.02.32-.07.53-.12.78-3.76-.02-7.63.16-11.77 0-.53.64-.78 1.67-1.86 1.86-.46.08-1.95.09-2.42-.06-.49-.16-1.4-1.07-1.69-1.58-.33-.59-.44-1.24-.57-1.86zm5.406.225c.16-.31.35-.62.5-.9 1-1.84 1.68-4.33 2.08-6.47 1.25-6.67.72-14.22-.06-20.66-.42-3.42-1.13-6.74-1.75-9.68-1.27-.44-2.43-.98-3.72-1.4 2.32 4.42 3.4 10.15 4.11 15.83.09.71.08 1.45.11 2.2.08 2.21.16 4.39.05 6.65-.07 1.55-.08 3.07-.28 4.56-.1.74-.21 1.49-.34 2.2-.13.71-.19 1.42-.34 2.09-.1.45-.32.89-.45 1.35-.14.48-.22.98-.4 1.41-.57 1.38-1.26 2.63-1.92 3.77 1.06.75 1.94-.11 2.37-.9zm-4.17-.28c.04.54.36.8.62 1.13-.24-.34-.2-.96-.62-1.12zm.5-.62c.18.4.33.84.73 1.02-.18-.4-.47-.7-.73-1.01zm1.57-.5c-.25-.11-.55.15-.79.23.06.28.2.48.45.57.15-.22.24-.51.33-.79zm-27.98-3.16c.27.56.49 1.16.95 1.52-.39-2.95 1.86-3.67 4.62-3.66-.47-1.06-2.15-1.91-3.66-1.74-.28.03-.6.19-.9.23-1.02.12-2.07.14-2.88.45-.51.19-.97.58-1.47.85s-.97.57-1.41.85c-.45.29-.97.54-1.41.85-.46.32-.8.79-1.24 1.02-.16.08-.37.05-.51.12-.3.14-.38.44-.62.51-.16.74-.38 1.68-.45 2.31.48-.32.52-1.09.95-1.46.24.66.18 1.62.68 2.02-.11-.74-.08-1.74.22-2.25.19.81.47 1.52 1.01 1.97-.11-.52-.22-1.37 0-1.97.34.56.34 1.46.9 1.81.04-.74-.38-1.53-.06-2.19.21.46.36 1 .62 1.41.14.23.25.57.56.62-.12-.71-.4-1.55-.23-2.36.48.82.71 1.89 1.52 2.37-.17-.71-.38-1.38-.45-2.19l.1.03.07-.08c.38.52.56 1.24 1.12 1.58-.13-.6-.3-1.17-.34-1.86l.1.03.07-.08c.31.67.53 1.43 1.13 1.81-.12-.43-.22-1.09-.28-1.69-.03-.25-.18-.71.11-.79.29.1.2.47.28.68.23.63.63 1.19 1.01 1.64-.17-.72-.45-1.5-.34-2.2l.1.03.07-.09zm-8.96.23c.09-.22.34-.37.28-.62-.65.7-1.02 1.87-.9 3.16.01.04.04.06.11.05.07-.97.22-1.91.5-2.59zm-3.66.45c-.39.44-.42 1.77.05 2.14-.06-.78.02-1.47-.06-2.14zm2.08-.33c-.46.51-.67 1.16-.68 1.97.07.01.08.08.17.06 0-.8.5-1.41.5-2.02zm31.36-4.33c-.84 2.15-2.31 3.66-3.66 5.3.97-.57 1.62-1.53 2.31-2.36.69-.83 1.48-1.65 1.91-2.7.43-.13.37-.75.84-.84-.1.75-.62 1.33-.96 1.92-.12.21-.17.48-.28.68-.07.11-.2.16-.29.28-.83 1.24-1.86 2.48-2.87 3.61.42-.17.79-.48 1.12-.79 1.35-1.25 2.47-2.91 3.49-4.56.02-.03.12.03.11-.05-.02-.09.1-.3.22-.51.12-.19.21-.57.56-.45.05.46-.21.89-.34 1.3-.15.44-.25.91-.45 1.3-.29.57-.83.97-.96 1.58-.43.38-.89 1.02-1.07 1.46 1.41-1.45 2.63-3.11 3.66-5.01.12-.22.25-.64.62-.56.04.75-.27 1.32-.51 2.02-.27.81-.6 1.55-1.01 2.25-.19.33-.5.63-.51 1.02 1.26-1.45 2.49-2.91 3.43-4.73.1-.21.22-.59.56-.56-.55 2.55-1.83 4.37-3.16 6.14.37 0 .56-.34.79-.56.53-.52 1.15-1.06 1.63-1.69.81-1.08 1.66-2.27 2.31-3.6l.06.09.1-.03c-.35 1.62-1.22 3.05-1.92 4.39-.06.13-.29.35-.11.51 1.19-1.23 2.12-2.94 2.76-4.73.07-.19 0-.67.39-.62.19.55-.03.96-.17 1.41-.17.56-.29 1.13-.45 1.69-.21.72-.6 1.35-.84 1.97.49-.13.83-.4 1.12-.73.75-2.29 1.06-4.77 1.24-7.55-3.34.22-7.64.14-10.82-.79-.38-.11-.76-.34-1.18-.28.58.46 1.34.76 2.2.96.81.19 1.69.46 2.59.56 2.13.26 4.42.21 6.36.17l-.026.1.08.07c-1.61.62-4.4.41-6.478.28-4.32-.26-7.51-2.05-10.19-3.88-.78 1.24-1.36 2.62-2.2 3.83-.13.18-.37.31-.34.56.77-.8 1.43-1.68 2.03-2.7.17-.28.31-.72.67-.84.3.31-.15.61-.11 1.02-.89 1.25-1.66 2.63-2.65 3.78 1.03-.84 1.94-1.87 2.7-3.04.25-.38.39-.86.79-1.13.29.38-.12.75-.28 1.02-.54.9-1.13 1.81-1.74 2.7-.81 1.19-1.896 2.19-2.59 3.27 1.83-1.56 3.365-3.52 4.79-5.58.17-.24.3-.7.68-.67.014.49-.34.85-.566 1.24-.43.73-.79 1.35-1.29 2.02-1.48 1.97-3.28 3.82-4.96 5.68 1.674-1.09 3.07-2.54 4.39-4.05.214-.25.456-.48.68-.74.61-.71 1.18-1.51 1.8-2.31l.04.1.07.08c-1.34 2.86-3.59 5.01-5.74 7.16-.06.06-.41.36-.22.4.93-.33 1.54-1.14 2.2-1.8 1.31-1.31 2.69-2.51 3.83-4.05.28-.38.57-.73.848-1.13.25-.36.46-.86.9-1.07-.027.68-.578 1.28-.96 1.856-1.12 1.71-2.65 3.32-3.77 4.9 2.13-1.55 3.72-3.64 5.24-5.8l.07.08.1-.03c-.78 2.27-2.54 3.87-3.71 5.57 1.6-1.36 2.9-3.044 4.11-4.84.15-.22.25-.64.62-.62-.01.51-.4 1.04-.68 1.52-.27.47-.6.926-.9 1.357-.65.9-1.37 1.74-1.86 2.59 1.35-1.23 2.5-2.67 3.6-4.163l.07.08.1-.02c-.93 2.055-2.44 3.52-3.77 5.18 1.62-1.07 2.88-2.68 4.06-4.28.18-.25.39-.555.56-.84.12-.2.19-.75.62-.62-.89 2.14-2.29 3.76-3.66 5.41.86-.56 1.5-1.36 2.14-2.14.62-.78 1.222-1.595 1.85-2.37l.07.077.1-.03zm-14.81 3.38c-.17-1.17-2.61-.87-3.44-.39-.49.28-1.16 1.23-1.01 1.92.14.66 1.31.99 2.36.79.96-.18 2.26-1.06 2.08-2.3zm27.31 1.41c-.12.51.87.65 1.24.68-.47-.17-.62-.66-1.24-.67zM37.28 35.9c-.72.312-1.236 1.468-.844 2.364.15-.92.5-1.637.845-2.362zm48.092 1.408c-.422-.332-.877-.998-1.295-.396.604.41 1.502.823 2.14 1.012-.19-.16-.51-.35-.845-.612zm-45.95-1.297c-.33.27-.766.74-.677 1.24.122-.48.656-.84.676-1.24zm-3.605-.9c-.583.02-.86.59-.957 1.13-.05.28-.068.68.056.85.137-.82.577-1.34.9-1.97zm50.907 1.69c-.43-.12-.75-.47-1.126-.73-.35-.24-.782-.66-1.24-.45.176.4.7.44 1.07.62.527.25.983.68 1.465.73-.082-.03-.138-.09-.17-.17zm-.564-1.86c-.434-.26-.876-.72-1.464-.62.03.3.39.34.62.45.25.12.486.27.732.39.5.24 1.02.51 1.464.62-.423-.29-.902-.57-1.352-.84zm-51.75-.05c-.174.24-.52.61-.395.96.096-.32.412-.72.394-.96zm-.452-.84c-.558.12-.78 1.04-.62 1.52.205-.51.334-1.09.62-1.52zm52.314-.39c-.45-.25-.923-.57-1.408-.62-.04.33.352.42.563.51.787.35 1.577.7 2.196.9-.414-.27-.882-.52-1.35-.78zm-.28-1.69c-.18-.01-.19.15-.395.12.063-.3-.228-.62-.563-.5v.45c1.198.6 2.403 1.2 3.66 1.74-.717-.78-1.878-1.12-2.703-1.8zm-46.515-1.41c.182.7.15 1.62.62 2.03.107-.83.125-1.75.394-2.42l.09.03.09.03c.28.8.39 1.76.96 2.26-.06-.6-.11-1.49 0-2.08l.11.03.07-.08c.3.74.49 1.58 1.02 2.09-.01-.79-.15-1.47-.05-2.08l.08.03.09-.03c.26.63.38 1.39.9 1.75-.02-.6-.17-1.07-.16-1.69l.08.03.03-.08c.25.49.39 1.08.79 1.4.04-.58-.11-.97-.11-1.52l.09.03.08-.02c.15.25.29.61.45.9.15.26.31.64.57.62-.09-.49-.2-1.23-.17-1.97.01-.2-.11-.58.17-.62.22.44.26.96.45 1.41.18.41.41.84.74 1.07-.1-.77-.11-1.3-.11-2.19l.08.03.03-.09c.2.51.47 1.06.9 1.41.02.02.17.3.17.06-.17-1.14.05-2.57.9-3.21.77-.58 1.89-.98 2.93-1.07.83-.08 1.32.23 1.97.45-.13-.45-.43-.89-.73-1.18-.5-.49-1.32-.97-2.08-1.13-.95-.2-2.18.03-3.21.05-.32.01-.78.1-1.07.17-1.41.34-2.96 1.16-4.16 1.86-.98.57-1.85 1.15-2.76 1.81-.26.19-.57.48-.9.45.25-.74.76-1.23 1.13-1.86-1.87-.1-4.11.15-5.86.51-.16.17-.58.36-.84.23.16-.41.77-.51 1.19-.73.21-.11.4-.24.62-.34.2-.09.49-.1.56-.34-1.01-.06-1.75.43-2.48.45.06-.13.16-.28.28-.45.07-.1.4-.28.17-.34-1.35.26-2.37 1.87-2.31 3.38.01.34.07.71.34.9.03-.35.16-.78.28-1.12.11-.32.18-.76.51-.73.01.53.04 1.05.28 1.35.26-.44.1-1.29.67-1.41.1.45-.13 1.3.17 1.69.22-.51.25-1.22.67-1.52.1.67.08 1.46.4 1.91.14-.42.09-1.08.22-1.52.05-.14.13-.4.34-.39.19.21.11.6.11.96.01.37-.1.83.17 1.02.01-.43.15-.82.28-1.18.09-.23.18-.61.45-.62.33.56-.13 1.9.4 2.26.06-.38.22-.75.34-1.13.11-.33.11-.8.45-.96.19.19.01.42 0 .68-.01.59.09 1.26.23 1.86.05.23.05.6.29.68.09-.85.15-1.73.45-2.36l.03.08.08.03c.15.89.12 1.95.62 2.48.08-.69.13-1.41.34-1.97l.07.09.1-.02zm16.837.17c.507.64.996 1.25 1.577 1.81h.17c.03-.08.09-.13.17-.17-.12-.47-.61-.58-.79-1.01.19-.28.34-.59.68-.73.38.32.88.52.96 1.13 1.65-1.07 2.65-2.8 3.21-4.95-.45-.2-.87-.48-1.24-.78-.35-.3-.77-.6-1.01-1.01-.64-.29-1.05-.82-1.52-1.29.02-.07.08-.1.06-.22-.56.05-.58-.43-.9-.62-.71.79-1.43 1.57-1.97 2.54.31.54.77.93 1.07 1.47-.26.45-.64.79-.9 1.24.33.3.6.65.85 1.02-.17.28-.33.57-.62.74-.25-.16-.22-.6-.73-.5.14.6.63.99.96 1.41zm28.89-.73c-.076.25-.173.63-.058.9.885.38 1.888.63 2.816.96.043-.01.11 0 .113-.05-.917-.64-1.892-1.23-2.872-1.8zm-33.508 1.23c.95-.35 2.67-1.42 2.14-2.92-.512-1.45-3.434-1.01-4.392-.28-.265.2-.725.85-.845 1.35-.41 1.73 1.34 2.18 2.76 1.92.15-.03.23-.02.33-.05zm33.562-2.36c-.18.24-.058.5-.057.85.82.17 1.62.64 2.37.68-.77-.5-1.48-1.07-2.31-1.52zm-.058-.96c-.17.44.17.53.45.68.28.14.64.29.9.4.62.25 1.32.54 1.81.62-1.04-.57-2.04-1.19-3.15-1.69zm-54-1.29c.52-.67 1.19-.96 1.75-1.52-.49 0-.73.12-1.01.28-.39.23-.42.3-.73.62-.36.39-.57.7-.73 1.24-.12.42-.28.92-.22 1.46.01.05.048.07.114.06.17-.97.4-1.56.844-2.14zm31.99-3.32c1.41 1.29 3 2.41 4.9 3.27 1.92.86 3.99 1.7 6.31 1.91 1.98.18 4.36.09 6.03 0 .29-.02.77.15.73-.34-.25-.29-.66-.08-.96-.06-2.86.18-5.84.07-7.99-.51-4.012-1.08-6.953-3-9.46-5.46-.86-.84-1.785-1.65-2.42-2.59-.676-1-1.23-2.07-1.803-3.15-.426-.81-.95-1.59-1.295-2.42-.12-.29-.113-.67-.392-.9-2.662-.23-5.182-.52-7.207-1.41-.297-.13-.64-.4-.845-.39s-.515.32-.785.51c-1.58 1.08-3.74 1.69-6.03 2.14-.68.13-1.416.29-2.026.28-.27 0-.532-.09-.786-.11-.29-.02-.56.02-.84 0-1.17-.09-2.4-.38-3.43-.62-.32-.07-.68-.3-1.01-.11 2.22 1.04 5.18 1.67 8 1.07 1.36-.29 2.61-.59 3.78-1.07 1.17-.49 2.19-1.14 3.27-1.58 2.05 1.1 4.65 1.66 7.83 1.63 1.15 3.95 3.52 7.21 6.48 9.91zm23.09 4.23c-.32-.17-.67-.38-1.07-.45.05.16-.08.15-.05.28.6.34 1.33.55 2.03.79-.22-.29-.58-.44-.9-.62zm-5.12-.34c.03-.4.008-.51 0-.95-.75.07-1.54.43-2.36.62-.85.2-1.72.32-2.535.57 1.68.25 3.386.02 4.898-.22zm4-.95c-.08.55.61.51.96.62.42.14.837.42 1.18.34-.67-.32-1.355-.92-2.14-.95zm-53.27-2.08c-1.51.22-2.19 1.27-2.42 2.76.01.05.048.07.11.06.4-1.31 1.348-2.07 2.31-2.81zm49.275 1.75V25c-1.23.33-2.577.76-3.72 1.07-.17.05-.442 0-.504.23 1.56.106 2.86-.07 4.23-.39zm-4.06-3.04c-.783.68-2.01.92-2.93 1.47 1.25.08 2.48-.16 3.55-.45.5-.14 1.073-.55 1.52-.22-.716.75-1.998.93-2.76 1.64 1.656-.11 3.322-.5 4.73-.68.033-5.58-.667-10.96-1.915-15.6-.204-.04-.303-.18-.507-.22C76.82 7 74.72 5.12 71.98 3.9c-1.32-.59-2.85-1.07-4.39-1.46-1.538-.39-3.18-.73-4.844-.957-1.264-.17-2.67-.1-4.054-.17-1.837-.08-3.826-.29-5.633-.11-1.25.13-2.54.1-3.66.28-.93.15-1.86.46-2.76.73-.92.28-1.9.46-2.71.79-.95.38-1.96.95-2.87 1.47-.95.53-1.91.98-2.82 1.47.19.6.55.9.67 1.468.19.86.11 1.9-.23 2.42-.16.25-.96.87-1.3 1.07-.51.31-1.15.62-1.64.79-.52.19-1.37.1-1.92.4.83.65 2.34.61 3.21.06.29-.19.43-.57.73-.56.08.19.13.4.11.68.48-.28.58-.96.95-1.35.12.26.03.73.05 1.07.57-.22.49-1.08.96-1.41.05.42.09.86.12 1.3.27-.19.47-.56.62-.9.16-.37.15-.82.45-1.07.2.34.21 1.06.11 1.52.56-.41.67-1.28 1.01-1.91l.07.08.1-.03c.03.28.02.61.05 1.02.25-.17.34-.54.45-.9.1-.33.06-.82.39-.96.25.44.06 1.39.28 1.69.43-.64.59-1.55.84-2.36.3.34.23 1.05.4 1.52.12-.29.3-.61.39-1.01.08-.36-.02-.85.28-1.07.3.42.15 1.28.45 1.69.28-.54.43-1.22.62-1.86l.08.03.03-.08c.15.48.01 1.26.28 1.63.24-.5.45-1.14.56-1.81.03-.22-.11-.54.17-.67.42.29.29 1.14.5 1.63.26-.16.3-.55.4-.9.08-.32.09-.72.33-.9.1.63.23 1.23.33 1.86.39-.39.52-1.17.73-1.86.06-.2-.05-.54.28-.56.16.07.23.3.28.51.15.66-.07 1.67.11 1.97.19-.35.41-.63.62-1.12.12-.3.25-1.17.62-1.13.73.09-.21 2.59.05 2.93.65-.66 1.07-1.56 1.52-2.42.27 1.06-.15 1.95-.45 2.87.68-.41 1.26-1.41 1.75-2.19l.06.09.1-.03c-.02 1.11-.445 1.82-.85 2.54.786-.58 1.23-1.51 1.8-2.31l.07.09.1-.03c-.08.95-.34 1.72-.73 2.37.26-.1.405-.39.566-.62.3-.42.57-.82.84-1.35.1-.18.1-.58.4-.51-.07 1.06-.42 1.83-.73 2.65.83-.45 1.367-1.19 1.97-1.86l.03.08.08-.02c-.14 1.047-.55 1.817-1.07 2.48.97-.4 1.57-1.17 2.25-1.86l.07.08.1-.03c-.1.676-.71 1.13-.73 1.69.62-.444 1.1-1.04 1.57-1.633l.067.09.1-.03c-.12.88-.55 1.44-.9 2.09.56-.125.88-.52 1.24-.846.17-.16.39-.28.56-.45.16-.164.23-.52.56-.45-.03.97-.69 1.31-.96 2.03.93-.215 1.44-.845 2.31-1.126-.12.83-1 1.24-1.41 1.86 0-.01-.19.25 0 .22.49-.13.95-.36 1.41-.562.42-.194.85-.51 1.29-.51-.08.36-.4.7-.68.96-.27.25-.6.58-.9.73-.28.14-.64.05-.79.39 1-.1 1.91-.44 2.813-.73.25-.08.6-.29.84-.11-.6.88-1.83 1.14-2.536 1.92.59-.07 1.15-.26 1.69-.4.56-.15 1.07-.37 1.57-.4-.46.54-1.05 1.18-1.8 1.46-.43.16-.99.107-1.24.56.8-.013 1.55-.19 2.26-.335.71-.16 1.35-.37 1.97-.46-.26.5-.85.785-1.41 1.016-.55.23-1.12.556-1.69.73-.24.076-.59 0-.73.28 1.69.01 3.32-.06 4.67-.392l-.02.1.076.07c-.93.74-2.33 1.01-3.438 1.58 1.64.24 3.09-.23 4.44-.51.236-.05.7-.29.79.11-1.03 1.04-2.81 1.32-4.17 2.03 2.05.1 3.56-.34 5.29-.67l-.022.088.09.03c-.78.77-2.08 1.02-3.09 1.57.46.06.95.04 1.41 0 1.18-.11 2.29-.49 3.21-.62-.58 1-2.26.89-3.21 1.52 1.56.34 3.37.21 4.84-.12l-.03.1.08.067c-.7.32-1.6.79-2.48.95-.41.08-.94.12-1.18.45 1.96.22 3.66-.07 5.35-.39l.08.07.1.04zM39.76 21.6c.45.713.713 1.61 1.46 2.026-.17-.6-.3-1.237-.393-1.913l.1.027.067-.086c.438.67.813 1.4 1.52 1.804-.044-.263-.206-.566-.28-.9-.065-.286-.168-.7 0-.9.192.52.607.817.9 1.238.174.04.108.04.282 0-.026.193.014.32.222.28-.053-.487-.232-.852-.28-1.35l.104.028.066-.084c.35.44.63.946 1.127 1.24-.06-.598-.4-1.217-.285-1.802.37.035.432.47.62.676.31.34.702.578 1.125.788-.022-.27-.236-.566-.34-.843-.1-.28-.25-.61-.11-.79.34-.05.365.34.507.51.322.38.757.66 1.237.9-.13-.58-.39-1.26-.34-1.92.06-.85.39-1.76.95-2.2.15-.12.47-.24.73-.4.66-.41 1.47-.69 2.7-.62.21.01.44.1.67.06-.51-1.17-1.92-1.87-3.32-1.97-.39-.03-.83-.05-1.24 0-.42.05-.83.3-1.24.39-.13.03-.26-.02-.4 0-.34.05-.68.22-1.02.34-1.61.56-3.06 1.45-4.45 2.31-.57.35-1.09.72-1.63 1.01.04-.65.57-.82.62-1.47-.38.04-.81.17-1.24.28-.64.15-1.13.52-1.58.11.29-.37.88-.44 1.12-.85-.28.01-.52-.02-.79 0-.66.04-1.29.34-1.75.17.41-.49 1.21-.59 1.63-1.07-.79.01-1.59.01-2.2.17-.24.06-.46.39-.67.11.47-.58 1.34-.76 1.91-1.24-.78-.16-1.67.01-2.37.11l.02-.11-.08-.07c.41-.29 1.01-.38 1.35-.73-.81-.15-1.51.23-2.2.39l.02-.1-.08-.07c.11-.23.39-.29.45-.56-1-.39-1.85-.09-2.48.39-.52.4-.92.82-1.18 1.52-.16.42-.32.99-.11 1.35.4-.12.36-.69.79-.79.01.88.16 1.64.67 2.02-.01-.53-.01-1.06.11-1.46l.06.09.1-.03c.09.84.23 1.48.56 2.08.14.25.3.58.56.62-.04-.75-.17-1.79.11-2.37.39.83.45 1.99 1.07 2.59.11-.32.04-.83.06-1.24l.08.03.03-.09c.13.61.31 1.18.56 1.69.17.34.3.79.68.85.13-.59-.21-1.87.17-2.36.41.62.49 1.57.96 2.14.17-.4-.23-1.35.17-1.63.4.15.3.66.4 1.01.04.16.17.29.22.45.15.48.2 1.03.5 1.35.01-.75-.22-1.76.11-2.31.31.85.45 1.87 1.07 2.42.01-.57-.1-1.03-.06-1.64l.11.02.06-.08c.19.38.33.84.51 1.24.17.4.33.84.73 1.01-.02-.61-.23-1.31-.12-1.86l.08.02.09-.03zm10.36.506c.26-.06.69-.03.956-.11.438-.135.89-.644 1.24-1.015.463-.49.816-.92.73-1.57-.058-.46-.492-1.01-.9-1.18-.82-.34-2.34-.2-2.928.12-.55.3-.74.68-1.015 1.24-.254.52-.415.86-.338 1.52.337.9 1.363 1.22 2.25 1.02zm37.56-7.376c-.02.393.41.45.62.62.394.314.69.756 1.124 1.012-.495-.63-.88-1.373-1.745-1.633zm-57.55-.45c-.284.127-.77.775-.68.9.233-.296.46-.59.677-.9zm54.17-.9c-.034.352.04.594.056.9.567.295 1.13.597 1.802.787-.58-.603-1.166-1.2-1.86-1.688zm-.17-1.354c-.04.284.097.394.06.677.53.256 1.2.677 1.744.733-.584-.488-1.07-1.07-1.803-1.41zm-.17-1.69c-.122.21.08.505.058.79.526.28 1.124.49 1.69.73-.47-.62-1.087-1.09-1.748-1.52zm3.268-.11c.466.602 1.103 1.034 1.744 1.463-.44-.63-1.12-1.02-1.745-1.47zM2.084 9.71c.348.385.346 1.12.563 1.634.365-.318.482-1.042.617-1.633.052-.22-.044-.57.226-.67.114.07.19.28.226.45.072.38-.093.93.168 1.13.153-.22.294-.51.395-.84.09-.31.02-.76.33-.9.41.38.1 1.48.39 1.97.18-.29.24-.67.34-1.07.09-.36.11-.86.39-1.07.45.21.33.99.5 1.47.45-.25.32-1.07.67-1.41.33.4.31 1.16.56 1.64.2-.05.26-.36.33-.56.07-.21.16-.46.22-.67.07-.25-.03-.65.28-.73.59.35.2 1.68.51 2.31.13-.38.56-.74.39-1.24.48-.11.22-.98.62-1.18.41.34.3 1.2.33 1.92.24-.22.48-.59.62-.96s.07-.89.45-1.07c.49.37.01 1.62.28 2.08.17-.32.31-.66.45-1.07.12-.37.16-.98.5-1.06.42.33.03 1.48.4 1.86.34-.49.42-1.27.73-1.8.2.59.35 1.23.5 1.86.26-.16.39-.54.5-.9.11-.34.08-.84.4-1.01.14.46.17 1.03.34 1.46.49-.39.5-1.26.9-1.74.29.27.07 1.01.22 1.52.55-.29.49-1.2.96-1.57.25.42.11 1.41.33 1.69.17-.28.28-.6.4-.96.11-.32.14-.76.45-.9.29.46.24 1.26.34 1.91.27-.19.43-.59.56-.95.14-.39.08-.93.45-1.13.47.45-.02 1.52.45 1.97.41-.56.56-1.39.84-2.08.07-.07.24-.05.39-.05.29.59.15 1.54.17 2.26.19.07.35-.23.45-.39.1-.18.25-.43.34-.62.2-.45.18-1.05.5-1.35.31.61-.06 1.77.06 2.37.58-.43.72-1.31 1.01-2.03.08-.19.17-.6.51-.51.02.79 0 1.54-.11 2.2.29-.23.42-.69.56-1.07.16-.43.19-.9.45-1.24.22.77.1 1.77.05 2.42.51-.42.68-1.35.904-2.02.07-.22.04-.66.45-.56.46.55-.12 1.75.23 2.14.18-.33.41-.71.56-1.13.15-.42.083-.99.51-1.19.192.61.17 1.44.223 2.2.31-.22.39-.67.51-1.07.13-.43.15-.93.4-1.24.41.47.25 1.51.34 2.31.35-.21.473-.69.62-1.13.15-.45.14-1.04.51-1.29.23.46.07 1.32.34 1.74.2-.24.28-.56.39-.9.1-.32.14-.71.39-.91.39.44.013 1.35.11 2.03.773-.63 1.382-1.32 2.31-1.75.952-.43 1.964-.71 2.87-1.24 1.74-1.01 3.33-2.22 4.953-3.21-4.16.17-8.79.74-13.35.68-.28.75-.2 1.86-.56 2.53-.65-.61-1.155-1.67-1.86-2.08-.21-.12-.82-.03-1.185 0-.37.03-.74.04-1.07.06-2.78.16-6.224.77-8.84 1.07.08.47-.12 1.09-.17 1.69-.03.4.11.86-.17 1.13-.48-.31-.88-1.11-1.4-1.63-.2-.2-.64-.67-.9-.73-.26-.06-.76.1-1.24.17-.67.08-1.05.23-1.64.39-.51.14-1.04.18-1.46.28-.906.217-2.08.68-3.15 1.07-.95.34-2.21.86-2.82 1.41-.7.64-1.685 2.196-.785 3.27.115-.58-.01-1.4.39-1.69zm31.704 1.634C35.19 11.2 37.39 10.28 38.01 9.26c.704-1.155-.046-2.392-1.294-2.478-.6-.04-1.41.302-1.747.507-.45.27-.87.52-1.24.73-.46.25-1.07.51-1.3.84-.08.12-.05.28-.12.45-.16.39-.44.74-.34 1.41.2.54.97.7 1.8.62zM84.864 9.71c-.325-.278-.683-.586-1.126-.73-.11.48.482.737.842.957.418.254.883.56 1.24.62-.373-.228-.64-.57-.96-.846zm-.113-.957c-.39-.304-.77-.733-1.24-.788.16.487.72.686 1.13.958.42.28.83.686 1.29.73-.36-.3-.77-.59-1.18-.9zm4.45-.562c-.95-1.33-1.9-2.68-3.09-3.71-.4-.34-.81-.85-1.41-.9-.01.27.29.42.45.56.2.19.43.38.62.57 1.17 1.17 2.24 2.48 3.38 3.61.02.05.05.07.12.06.01-.07-.02-.12-.05-.17zM83.35 6.5c-.167.153.032.416 0 .62.615.437 1.367.735 1.97 1.183.08.005.16.01.17-.057-.636-.585-1.392-1.05-1.972-1.69l.096-.038.07-.073c.146-.025.32.2.396.057-.28-.285-.72-.407-.9-.788.686.045 1.15.312 1.8.395-.57-.62-1.3-1.07-2.14-1.41.183.53.134 1.19.508 1.63l-.028.08.03.08zm-5.58-1.35c.02.3.045.593.168.788h.17c-.117-.26-.18-.57-.338-.788zm-.958-1.183c-.054.547-.237 1.352.394 1.408.01-.393-.09-1.14-.394-1.408zm-.845-.225c-.31.066-.225.526-.337.788.122.048.192.147.394.113.07-.225-.02-.612-.057-.9z"/>
</svg>
