<svg xmlns="http://www.w3.org/2000/svg" width="93.719" height="44.796" viewBox="0 0 93.719 44.796">
  <path fill="#1d364a" fill-rule="evenodd" clip-rule="evenodd" d="M18.033 43.105c-.29.514-1.204 1.423-1.69 1.576-.47.15-1.968.14-2.42.06-1.08-.19-1.328-1.22-1.858-1.86-4.143.16-8.01-.01-11.77 0-.048-.25-.136-.46-.112-.78 3.937-.34 7.684.22 11.6.06-.1-.61-.778-.5-1.295-.5-4.12 0-7.042.01-10.36-.05-.063-.23-.066-.53-.058-.84 3.115-.08 6.842-.13 9.798.11.41.04.918.19 1.24-.11-.6-.3-1.352-.22-2.028-.22-3.22-.04-5.873-.28-9.01-.28-.086-.48-.098-1.32 0-1.8.418-.1 1.004-.05 1.52-.05.457 0 1.13.15 1.127-.39H.014V34.8c.712-.68 1.82-.96 2.42-1.746-.934.25-1.48.88-2.42 1.124.135-.632-.033-1.57.112-2.194.336-.29.8-.525 1.238-.79.407-.248.944-.455 1.07-.846-.336.236-.757.31-1.126.51-.413.216-.726.66-1.183.62-.048-.86.11-1.99.112-2.984 1.133-.857 2.373-1.61 3.38-2.59-1.243.52-2.095 1.434-3.267 2.024-.09-.292.003-.85.057-1.182.812-.61 1.74-1.27 2.534-1.86.26-.19.69-.34.74-.68-.6.26-1.17.57-1.69.9-.53.347-.96.84-1.57 1.07.07-.856.09-1.88.17-2.87 1.02-.893 2.67-1.46 3.44-2.42-.93.444-1.81 1.02-2.59 1.576-.24.173-.49.52-.84.45-.01-.573.01-1.12.12-1.577.96-.823 2.24-1.33 2.99-2.364-1.1.58-1.94 1.4-3.04 1.97.26-.97-.2-2.06.11-2.81.08-.18.4-.4.62-.61.49-.46.83-.83 1.24-1.24.19-.19.58-.36.51-.68-.35 0-.46.25-.5.56-.76.23-1.17.81-1.86 1.12.01-1.43.1-2.84.06-4.17.74-.8 1.67-1.41 2.2-2.42-.61.36-1.14.84-1.63 1.24-.17.13-.32.41-.56.34-.02-.99.03-1.77.06-2.59C2.63 8.53 4.01 7 5.42 5.5c.287-.203.42-.56.79-.677.07-.34.655-.47.56-.79-.41-.11-.66.19-.9.45-.68.74-1.38 1.375-2.08 2.028-.72.67-1.494 1.26-2.197 1.86-.226.19-.42.51-.733.56-.044-1.13.16-2.01.17-3.09.646-.55 1.46-.96 2.084-1.47.274-.23.76-.52.73-.85-.547.19-.97.61-1.41.96-.217.17-.45.33-.677.51-.19.15-.37.52-.68.4.203-1.14.2-2.55.672-3.49 2.52.13 5.79.07 8.95-.11 2.24-.12 4.45-.63 6.25-.28.45.09 1.44.84 1.69 1.13.24.3.28.73.67.96 2.36-.94 4.93-1.98 7.94-2.59 2.27-.46 4.69-.66 7.16-.8.82-.04 1.64-.02 2.48-.05 3.21-.15 6.15-.2 9.29-.06 2.62.12 5.83.52 8.56.73.99.08 1.96.22 2.87.29 6.03.44 12.6.71 18.47 1.58 2.86.43 5.91.79 8.67 1.41 1.23.28 2.57.79 3.83 1.24.6.22 1.25.47 1.8.73.59.28 1.23.59 1.63.9.72.56 1.75 2.06 1.69 3.26-.03.43-.29 1.03-.45 1.57-.17.56-.37 1.23-.57 1.52-.34.52-1.1.86-1.75 1.19-.71.35-1.42.59-2.26.67-1.66.16-3.69-.1-5.58-.34-1.41-.18-2.81-.43-4-.68-.45-.1-.89-.12-1.24-.23-.17-.06-.55-.32-.73-.34-.58-.08-1.29.11-1.97.11-3.68-.02-7.85-.16-10.98-.51.66 1.35 1.54 2.55 1.74 4.28.32 2.67-1.51 4.43-3.38 5.4 1.23.77 2.41 2 2.59 3.78.18 1.65-.46 2.92-1.18 3.78-.67.81-1.64 1.37-2.59 1.69.37.56.39 1.39.45 2.2.08.87.03 1.39-.22 2.2-.47 1.5-1.05 2.36-1.97 3.27-.64.65-1.16 1-1.91 1.47-.64.4-1.1.67-1.86.96-.77.29-1.76.59-2.59.73-.72.12-1.45.22-2.19.22-2.41.01-5.09-.46-7.77-.45-4.2.01-8.98.37-13.29.56-.96.05-1.98-.08-2.98-.17-1.08-.09-2.14-.15-3.15-.29-1.01-.14-1.92-.33-2.81-.62-.9-.29-1.69-.71-2.48-.95-.13.63-.23 1.28-.56 1.87zm-2.478-.732c-.658-1.146-1.343-2.395-1.915-3.772-.18-.43-.257-.92-.394-1.4-.132-.46-.348-.9-.45-1.35-.152-.66-.213-1.37-.338-2.08-.125-.71-.24-1.45-.338-2.19-.2-1.49-.208-3.01-.282-4.56-.107-2.25-.03-4.43.056-6.64.03-.74.023-1.48.113-2.19.712-5.67 1.792-11.4 4.11-15.82-1.285.42-2.45.97-3.716 1.41-.61 2.95-1.33 6.27-1.74 9.69-.78 6.44-1.31 13.99-.05 20.67.4 2.14 1.09 4.63 2.09 6.48.15.28.34.59.51.9.42.79 1.31 1.65 2.37.9zm1.183-.056c.254-.328.573-.59.62-1.127-.42.162-.384.78-.62 1.127zm-.62-.733c.4-.183.55-.615.73-1.014-.266.315-.547.615-.73 1.014zm-.507-.732c.25-.09.39-.29.45-.562-.24-.074-.54-.335-.78-.226.1.277.19.562.34.788zm27.72-3.857l.11-.028c.12.698-.16 1.475-.33 2.196.39-.446.78-1.005 1.02-1.633.08-.213-.01-.575.28-.676.29.077.14.53.12.788-.06.6-.16 1.257-.28 1.69.6-.377.82-1.137 1.13-1.803l.07.08.1-.03c-.04.69-.2 1.25-.33 1.85.56-.34.74-1.06 1.13-1.58l.07.08.11-.03c-.07.81-.28 1.48-.45 2.2.82-.48 1.04-1.55 1.52-2.37.17.81-.11 1.65-.22 2.36.32-.06.42-.4.56-.62.26-.41.41-.95.62-1.41.32.66-.1 1.45-.05 2.19.56-.35.56-1.25.9-1.81.22.6.11 1.44 0 1.97.55-.45.83-1.17 1.02-1.97.31.51.34 1.5.23 2.25.5-.41.44-1.37.68-2.03.43.37.48 1.14.96 1.46-.07-.63-.29-1.58-.45-2.31-.24-.07-.32-.37-.62-.51-.14-.07-.35-.04-.51-.12-.44-.23-.78-.7-1.24-1.02-.44-.31-.95-.56-1.4-.85-.44-.28-.91-.58-1.41-.85-.5-.27-.96-.65-1.46-.85-.81-.31-1.86-.33-2.87-.45-.31-.03-.62-.19-.9-.23-1.51-.17-3.19.67-3.66 1.74 2.75-.02 5.01.71 4.62 3.66.46-.37.69-.96.95-1.52l.07.08zm9.4 2.73c.07.01.1-.012.12-.056.12-1.29-.25-2.46-.9-3.16-.06.24.19.39.28.62.29.67.44 1.62.51 2.59zm3.1 0c.47-.37.45-1.7.06-2.14-.07.67 0 1.358-.05 2.14zm-1.52-.45c.09.016.1-.053.17-.057-.01-.815-.22-1.467-.67-1.97.01.615.51 1.222.51 2.027zm-31.78-6.343l.07-.076c.63.773 1.23 1.59 1.86 2.364.64.788 1.28 1.58 2.14 2.14-1.37-1.645-2.77-3.27-3.66-5.405.43-.134.5.416.62.62.18.287.38.596.57.844 1.17 1.59 2.44 3.2 4.05 4.28-1.33-1.66-2.84-3.13-3.77-5.19l.1.02.07-.08c1.1 1.49 2.24 2.93 3.6 4.16-.49-.85-1.21-1.69-1.86-2.59-.3-.43-.63-.89-.9-1.36-.27-.48-.66-1.01-.67-1.52.37-.02.48.4.62.62 1.21 1.79 2.51 3.48 4.11 4.84-1.17-1.7-2.93-3.3-3.71-5.58l.11.02.07-.09c1.52 2.16 3.11 4.25 5.24 5.8-1.12-1.58-2.65-3.19-3.77-4.9-.38-.58-.93-1.18-.95-1.86.44.21.65.71.9 1.07.28.4.57.75.85 1.13 1.14 1.54 2.52 2.74 3.83 4.05.66.66 1.26 1.46 2.2 1.8.19-.04-.16-.33-.22-.4-2.15-2.15-4.4-4.3-5.74-7.16l.07-.07.04-.1c.62.79 1.19 1.59 1.8 2.31.22.26.46.49.68.73 1.33 1.52 2.72 2.97 4.39 4.06-1.68-1.86-3.48-3.71-4.95-5.69-.5-.67-.87-1.29-1.3-2.03-.23-.39-.58-.75-.57-1.24.38-.03.51.43.68.67 1.42 2.06 2.96 4.02 4.79 5.57-.69-1.07-1.77-2.08-2.59-3.27-.61-.89-1.2-1.8-1.74-2.7-.16-.27-.57-.64-.28-1.02.4.27.54.75.79 1.13.76 1.17 1.67 2.2 2.7 3.04-.99-1.15-1.76-2.52-2.65-3.77.04-.4-.41-.71-.11-1.02.37.12.51.56.68.84.6 1.02 1.26 1.89 2.03 2.7.04-.26-.21-.38-.33-.56-.84-1.22-1.42-2.59-2.19-3.83-2.69 1.83-5.88 3.62-10.19 3.89-2.08.12-4.87.33-6.48-.28l.09-.07-.03-.1c1.94.04 4.23.09 6.36-.17.9-.1 1.78-.37 2.59-.56.86-.2 1.61-.5 2.2-.96-.43-.05-.8.17-1.19.29-3.18.93-7.47 1.01-10.81.78.178 2.78.48 5.26 1.24 7.54.29.33.63.6 1.12.73-.24-.62-.63-1.25-.84-1.97-.16-.56-.27-1.13-.45-1.69-.14-.45-.36-.86-.17-1.41.39-.05.33.43.4.62.64 1.79 1.568 3.5 2.76 4.73.178-.16-.05-.38-.112-.51-.69-1.35-1.56-2.77-1.91-4.4l.1.03.07-.08c.65 1.33 1.5 2.52 2.31 3.6.47.63 1.1 1.16 1.63 1.69.23.22.42.56.79.56-1.33-1.77-2.61-3.59-3.15-6.14.34-.03.46.35.56.56.94 1.82 2.18 3.28 3.44 4.73-.005-.39-.316-.69-.506-1.02-.41-.7-.74-1.44-1.02-2.25-.23-.7-.54-1.28-.505-2.03.37-.08.5.34.62.56 1.04 1.9 2.25 3.56 3.66 5.01-.17-.45-.64-1.09-1.07-1.47-.12-.61-.67-1.01-.95-1.58-.2-.38-.31-.86-.45-1.29-.14-.41-.4-.84-.34-1.3.353-.12.443.26.56.45.127.21.24.42.23.51-.016.08.09.02.11.06 1.03 1.65 2.15 3.31 3.494 4.56.33.31.71.62 1.13.79-1.01-1.13-2.05-2.37-2.87-3.6-.085-.12-.22-.18-.285-.28-.12-.21-.16-.47-.28-.68-.335-.59-.85-1.17-.955-1.91.47.09.41.72.85.84.43 1.06 1.22 1.87 1.912 2.71.69.83 1.34 1.79 2.31 2.36-1.35-1.63-2.83-3.14-3.66-5.3l.1.02zM39.32 38.6c1.058.2 2.224-.132 2.364-.79.146-.683-.52-1.63-1.014-1.913-.83-.477-3.265-.778-3.435.395-.18 1.244 1.12 2.126 2.084 2.308zm-30.635-.225c.366-.023 1.35-.17 1.238-.676-.62.01-.768.5-1.238.67zm48.597-.114c.392-.89-.124-2.05-.845-2.36.345.73.695 1.45.845 2.37zm-49.78-.33c.638-.19 1.537-.6 2.14-1.01-.418-.6-.873.07-1.295.4-.336.26-.655.45-.845.62zm47.472-.67c.09-.5-.347-.96-.676-1.24.02.4.554.76.676 1.24zm3.83-.17c.123-.17.106-.56.055-.84-.1-.53-.38-1.11-.96-1.12.32.63.76 1.15.9 1.97zm-51.977-.12c.482-.05.938-.48 1.464-.73.38-.17.9-.22 1.07-.62-.45-.2-.88.21-1.23.45-.38.26-.7.62-1.12.74-.03.08-.09.14-.17.17zm-.62-1.18c.445-.11.964-.38 1.464-.62.25-.12.49-.27.74-.39.23-.1.59-.14.62-.45-.58-.1-1.03.36-1.46.62-.45.28-.93.56-1.35.85zm53.497.06c.125-.35-.22-.71-.394-.95-.018.24.297.64.394.95zm.675-.28c.16-.48-.07-1.4-.62-1.52.28.43.41 1.01.62 1.52zM6.09 34.43c.62-.2 1.41-.558 2.196-.9.21-.092.602-.185.562-.507-.485.043-.96.37-1.408.62-.467.26-.935.516-1.35.787zm-1.07-.676c1.258-.544 2.463-1.14 3.66-1.745v-.45c-.334-.12-.625.2-.562.5-.205.03-.215-.12-.393-.12-.826.67-1.986 1.02-2.704 1.8zm49.32-3.18l.067-.085c.213.55.26 1.28.34 1.97.5-.53.474-1.59.617-2.48l.084-.03.03-.09c.305.63.363 1.51.45 2.36.24-.08.23-.45.28-.68.135-.6.237-1.27.226-1.86-.004-.26-.186-.49 0-.68.34.15.34.62.45.95.123.37.285.75.34 1.12.53-.35.062-1.7.393-2.25.27 0 .36.38.45.62.134.35.27.75.28 1.18.277-.19.167-.65.17-1.02.003-.36-.08-.75.113-.96.21-.01.292.25.337.39.14.43.083 1.09.227 1.52.313-.46.295-1.24.394-1.92.43.3.45 1.01.678 1.52.302-.39.063-1.24.17-1.69.57.12.414.97.674 1.41.244-.31.27-.83.283-1.36.323-.03.396.41.506.73.12.34.25.77.28 1.12.27-.19.32-.56.34-.9.05-1.51-.96-3.13-2.31-3.38-.23.06.1.24.17.34.12.16.22.32.28.45-.73-.02-1.47-.52-2.48-.45.07.24.36.24.56.34.21.09.4.22.62.33.42.21 1.02.31 1.18.73-.27.13-.69-.07-.85-.23-1.75-.37-3.98-.62-5.86-.51.37.62.87 1.11 1.12 1.86-.33.03-.64-.27-.9-.45-.91-.66-1.78-1.24-2.76-1.81-1.2-.7-2.76-1.52-4.17-1.86-.29-.07-.75-.16-1.07-.17-1.03-.02-2.26-.26-3.21-.06-.76.16-1.59.64-2.09 1.13-.3.29-.6.74-.73 1.18.65-.22 1.14-.53 1.97-.45 1.04.09 2.16.49 2.93 1.07.85.64 1.08 2.07.9 3.21 0 .24.15-.04.17-.06.43-.36.69-.91.9-1.41l.03.08.08-.03c0 .89-.02 1.42-.11 2.2.33-.24.56-.67.73-1.07.19-.45.23-.98.45-1.41.29.03.16.42.17.62.04.74-.08 1.47-.17 1.97.26.01.42-.37.56-.62.17-.29.3-.65.45-.9l.08.02.08-.03c0 .54-.15.94-.11 1.52.4-.33.54-.92.79-1.41l.02.08.08-.03c0 .62-.15 1.09-.17 1.69.52-.36.64-1.12.9-1.75l.08.03.08-.03c.09.61-.05 1.29-.06 2.08.52-.51.71-1.35 1.01-2.09l.07.09.1-.03c.11.59.06 1.48 0 2.08.57-.5.68-1.46.96-2.26l.08-.03.08-.03c.27.67.29 1.59.39 2.42.47-.41.44-1.33.62-2.03l.1.02zm-15.98-1.268c-.51-.1-.478.347-.73.507-.283-.17-.443-.46-.62-.732.248-.37.52-.72.844-1.01-.262-.45-.638-.79-.9-1.24.307-.53.76-.93 1.07-1.46-.54-.96-1.26-1.74-1.972-2.53-.324.19-.342.68-.9.62-.025.12.038.15.055.23-.462.48-.875 1-1.52 1.3-.244.42-.657.72-1.014 1.02-.367.31-.785.59-1.24.79.565 2.16 1.56 3.89 3.21 4.96.083-.61.58-.81.96-1.12.333.14.49.45.674.74-.173.43-.66.54-.788 1.02.08.03.13.09.16.17h.17c.58-.56 1.07-1.16 1.57-1.8.33-.42.82-.81.96-1.41zm-32.715 2.48c.002.055.07.044.113.057.928-.33 1.93-.584 2.816-.958.116-.27.018-.65-.057-.9-.98.577-1.955 1.16-2.872 1.8zm36.715-.507c1.418.26 3.17-.19 2.758-1.92-.12-.51-.58-1.15-.845-1.35-.958-.73-3.88-1.17-4.392.28-.53 1.5 1.19 2.57 2.14 2.93.11.04.19.03.34.05zm-36.21-.91c.746-.05 1.552-.52 2.365-.68 0-.34.124-.61-.056-.85-.83.45-1.54 1.01-2.31 1.52zm-.788-.79c.49-.09 1.182-.37 1.802-.62.27-.11.627-.26.9-.4.287-.15.626-.24.45-.68-1.112.5-2.11 1.11-3.152 1.69zm58.002-.85c.065.01.1-.02.113-.06.055-.55-.1-1.05-.225-1.47-.16-.54-.366-.85-.732-1.24-.305-.32-.336-.39-.732-.62-.286-.16-.524-.28-1.014-.28.56.55 1.232.85 1.746 1.52.444.58.673 1.17.844 2.14zM37.01 13.37c3.178.025 5.777-.53 7.827-1.632 1.077.43 2.095 1.09 3.266 1.57 1.16.485 2.415.785 3.773 1.07 2.823.6 5.776-.03 7.996-1.07-.335-.185-.69.04-1.014.115-1.037.237-2.26.53-3.435.62-.287.02-.557-.024-.845 0-.254.02-.515.107-.788.112-.61.007-1.346-.15-2.027-.283-2.287-.446-4.447-1.055-6.025-2.14-.27-.186-.582-.495-.788-.507s-.548.266-.845.396c-2.025.89-4.545 1.18-7.208 1.41-.28.23-.275.61-.394.9-.347.83-.87 1.61-1.296 2.42-.573 1.08-1.126 2.15-1.802 3.15-.637.94-1.562 1.75-2.42 2.59-2.508 2.46-5.45 4.38-9.46 5.46-2.155.58-5.138.69-7.998.51-.3-.02-.704-.23-.958.06-.04.49.44.33.73.34 1.66.09 4.05.18 6.02 0 2.32-.21 4.39-1.05 6.3-1.91 1.9-.85 3.48-1.97 4.9-3.26 2.96-2.7 5.33-5.96 6.47-9.91zM6.545 28.125c.696-.242 1.427-.45 2.027-.787.023-.136-.103-.123-.057-.282-.398.065-.75.278-1.07.45-.32.174-.68.332-.9.62zm10.924-.73c-.82-.246-1.69-.36-2.54-.563-.83-.19-1.62-.55-2.37-.61-.01.44-.03.55 0 .958 1.51.24 3.22.47 4.9.225zm-11.04-.227c.34.078.76-.197 1.18-.337.34-.11 1.04-.07.96-.62-.79.03-1.47.63-2.14.96zm57.72-.224c.06.01.1-.013.11-.057-.24-1.493-.91-2.544-2.42-2.76.96.746 1.91 1.506 2.3 2.817zm-47.36-.676c-.06-.225-.34-.18-.51-.225-1.14-.31-2.49-.742-3.72-1.07v.9c1.37.326 2.66.5 4.22.397zm-.08-3.475l.07-.07c1.69.318 3.39.61 5.35.394-.24-.332-.77-.37-1.19-.45-.88-.17-1.78-.636-2.48-.957l.08-.067-.03-.1c1.47.32 3.28.45 4.84.11-.95-.626-2.63-.522-3.21-1.52.92.128 2.03.515 3.21.62.46.04.94.06 1.41 0-1.01-.55-2.31-.805-3.1-1.576l.08-.03-.03-.083c1.73.337 3.24.77 5.29.675-1.35-.71-3.14-1-4.17-2.03.09-.41.55-.16.79-.12 1.35.28 2.81.75 4.45.5-1.11-.56-2.51-.83-3.44-1.58l.07-.07-.02-.11c1.36.33 2.98.4 4.68.39-.15-.28-.5-.21-.74-.28-.57-.18-1.14-.51-1.69-.73-.56-.23-1.15-.52-1.41-1.02.62.09 1.26.3 1.97.45.7.15 1.46.32 2.25.33-.25-.45-.81-.4-1.24-.56-.76-.29-1.35-.92-1.81-1.46.5.03 1.01.25 1.58.4.54.14 1.1.33 1.69.39-.7-.78-1.93-1.03-2.53-1.91.24-.18.59.03.84.11.9.29 1.81.63 2.81.73-.15-.34-.51-.26-.79-.4-.31-.15-.63-.48-.9-.73-.28-.26-.6-.6-.68-.96.44 0 .87.31 1.29.5.45.2.92.43 1.41.56.18.03-.01-.23 0-.22-.42-.62-1.29-1.03-1.41-1.86.86.28 1.38.91 2.31 1.12-.27-.72-.93-1.06-.96-2.03.33-.06.4.29.56.45.16.17.38.29.56.45.35.33.68.73 1.24.85-.35-.64-.79-1.2-.9-2.08l.1.03.07-.09c.47.59.95 1.19 1.58 1.63-.03-.56-.64-1.02-.74-1.69l.11.02.06-.09c.68.69 1.28 1.46 2.25 1.86-.52-.66-.93-1.43-1.07-2.47l.08.02.03-.08c.6.67 1.14 1.41 1.97 1.86-.31-.82-.67-1.59-.73-2.65.3-.08.3.32.39.5.27.53.54.94.84 1.35.16.23.3.52.56.62-.39-.65-.65-1.42-.73-2.37l.1.03.06-.09c.58.8 1.02 1.72 1.81 2.31-.41-.72-.83-1.43-.85-2.54l.1.03.06-.08c.49.78 1.07 1.78 1.74 2.19-.3-.93-.72-1.81-.45-2.87.45.86.87 1.76 1.52 2.42.26-.34-.67-2.84.06-2.93.37-.05.5.82.62 1.12.21.49.43.77.62 1.12.19-.3-.04-1.31.11-1.97.04-.2.12-.43.28-.5.33.02.22.36.28.56.2.69.34 1.46.73 1.86.1-.63.23-1.23.34-1.86.24.17.25.58.33.9.1.34.13.74.4.9.21-.5.08-1.35.5-1.63.28.13.13.45.17.67.11.67.32 1.3.56 1.8.27-.37.13-1.15.28-1.63l.03.08.08-.03c.18.64.33 1.32.62 1.86.3-.41.15-1.28.45-1.69.3.22.2.71.28 1.07.1.4.27.72.4 1.01.17-.48.09-1.19.4-1.52.25.81.41 1.72.84 2.36.22-.31.03-1.26.28-1.69.33.13.29.63.39.96.11.36.2.73.45.9.03-.4.02-.74.06-1.02l.1.03.06-.09c.35.62.45 1.5 1.01 1.91-.09-.46-.09-1.19.12-1.52.294.25.29.7.45 1.07.15.33.344.71.62.9.03-.45.06-.88.11-1.3.47.32.39 1.18.96 1.4.03-.35-.06-.81.06-1.07.38.39.47 1.07.96 1.35-.02-.28.037-.49.11-.67.3-.01.44.38.73.56.87.55 2.38.59 3.21-.06-.55-.3-1.39-.21-1.914-.4-.49-.18-1.12-.48-1.63-.79-.34-.21-1.14-.83-1.29-1.07-.34-.52-.41-1.56-.22-2.42.13-.57.49-.87.68-1.46-.91-.49-1.87-.94-2.81-1.47-.92-.52-1.93-1.08-2.87-1.47-.81-.33-1.79-.51-2.71-.79-.91-.28-1.84-.59-2.76-.73-1.13-.18-2.41-.16-3.66-.28-1.81-.19-3.8.02-5.63.11-1.39.06-2.79 0-4.06.17-1.66.22-3.3.57-4.84.96s-3.08.87-4.39 1.46c-2.74 1.22-4.84 3.1-6.81 4.9-.21.04-.31.18-.51.22-1.25 4.63-1.95 10.01-1.92 15.59 1.4.17 3.07.56 4.73.67-.77-.7-2.05-.89-2.76-1.63.44-.33 1.02.08 1.52.22 1.07.29 2.29.53 3.55.45-.92-.55-2.15-.787-2.93-1.47l.09-.04zm37.32-1.17l.08-.026c.11.555-.1 1.253-.12 1.858.39-.17.55-.615.73-1.013.17-.4.32-.86.5-1.24l.06.085.1-.028c.04.6-.07 1.06-.06 1.63.62-.55.76-1.57 1.07-2.43.33.55.1 1.56.12 2.31.3-.33.35-.87.5-1.36.05-.16.18-.29.22-.45.1-.35 0-.86.39-1.02.4.28 0 1.23.17 1.63.46-.57.54-1.52.96-2.14.38.5.04 1.77.17 2.36.37-.06.51-.51.67-.85.25-.51.43-1.08.56-1.69l.02.09.08-.03c.02.41-.06.92.05 1.24.62-.6.68-1.76 1.07-2.59.28.58.15 1.62.11 2.36.26-.04.42-.37.56-.62.33-.6.47-1.25.56-2.08l.1.03.06-.09c.12.4.11.93.11 1.46.51-.39.66-1.15.67-2.03.43.1.39.67.79.79.21-.36.05-.93-.11-1.35-.27-.71-.67-1.13-1.19-1.52-.63-.48-1.48-.78-2.48-.4.06.27.34.33.45.56l-.08.07.02.1c-.69-.16-1.39-.55-2.2-.4.34.36.94.44 1.35.73l-.08.07.03.1c-.7-.11-1.59-.27-2.36-.11.57.48 1.44.66 1.91 1.23-.21.28-.43-.05-.67-.12-.6-.15-1.4-.16-2.2-.17.42.48 1.22.58 1.63 1.07-.46.18-1.09-.12-1.74-.17-.27-.02-.51.01-.79 0 .24.41.84.48 1.12.84-.45.41-.94.04-1.58-.11-.43-.11-.86-.23-1.24-.28.05.64.58.81.62 1.46-.55-.29-1.06-.66-1.63-1.01-1.39-.86-2.84-1.74-4.45-2.31-.34-.12-.68-.29-1.01-.34-.14-.02-.27.03-.4 0-.41-.09-.82-.34-1.24-.4-.41-.05-.85-.03-1.24 0-1.41.1-2.82.81-3.33 1.97.24.05.47-.04.68-.06 1.22-.07 2.03.21 2.7.62.26.16.59.28.74.4.57.43.9 1.35.96 2.19.05.65-.207 1.34-.337 1.91.48-.24.91-.52 1.234-.9.14-.17.17-.56.51-.51.14.18-.01.51-.11.79-.1.27-.32.57-.34.84.42-.21.81-.45 1.12-.79.182-.2.243-.64.613-.67.11.58-.23 1.2-.29 1.8.5-.29.78-.8 1.13-1.24l.06.08.108-.02c-.04.49-.22.86-.28 1.35.21.04.25-.09.23-.28.17.04.11.04.28 0 .29-.42.71-.72.9-1.24.17.2.06.61 0 .9-.08.33-.24.64-.28.9.7-.4 1.08-1.13 1.52-1.8l.06.08.11-.03c-.09.68-.22 1.32-.39 1.92.75-.42 1.02-1.32 1.47-2.03l.09.03zm-8.2-.534c.07-.67-.09-1.01-.34-1.52-.28-.56-.47-.95-1.01-1.24-.59-.32-2.11-.46-2.93-.12-.41.17-.84.72-.9 1.18-.09.65.26 1.08.73 1.57.35.37.8.88 1.24 1.01.27.08.69.05.95.11.88.2 1.91-.12 2.25-1.02zM4.28 16.36c.434-.26.73-.7 1.126-1.02.21-.17.637-.228.62-.62-.867.26-1.25 1.002-1.747 1.632zm59.973-1.18c.093-.13-.396-.78-.677-.9.214.3.443.6.674.9zm-56.7-.12c.67-.19 1.233-.49 1.8-.79.014-.31.09-.55.056-.9-.7.49-1.28 1.08-1.86 1.69zm.223-1.64c.545-.056 1.212-.477 1.746-.73-.04-.283.095-.393.056-.676-.735.337-1.22.92-1.804 1.407zM8 11.845c.56-.24 1.16-.45 1.69-.73-.03-.28.18-.58.05-.79-.66.43-1.28.9-1.75 1.52zm-3.27-.16c.64-.43 1.28-.86 1.74-1.46-.63.445-1.31.834-1.75 1.464zm87.28-.28c.9-1.07-.09-2.63-.79-3.263-.61-.55-1.87-1.07-2.82-1.41-1.077-.39-2.25-.852-3.153-1.07-.425-.1-.95-.143-1.464-.28-.586-.16-.97-.31-1.633-.394-.48-.06-.98-.23-1.24-.17-.26.064-.7.534-.9.73-.52.525-.922 1.323-1.405 1.635-.277-.263-.14-.73-.17-1.127-.045-.6-.244-1.22-.168-1.69-2.613-.3-6.06-.91-8.84-1.07-.33-.02-.7-.025-1.07-.057-.36-.03-.973-.12-1.183 0-.704.41-1.206 1.47-1.856 2.08-.36-.67-.284-1.78-.56-2.54-4.56.07-9.187-.51-13.345-.68 1.627.99 3.213 2.2 4.955 3.21.91.52 1.92.8 2.877 1.24.924.42 1.533 1.12 2.31 1.75.093-.68-.285-1.59.11-2.03.246.19.29.59.39.9.117.35.19.66.395.9.268-.43.105-1.28.338-1.75.368.26.357.85.507 1.3.146.43.273.92.62 1.12.085-.8-.074-1.84.338-2.31.244.31.267.81.393 1.24.12.4.2.85.51 1.07.055-.75.03-1.59.226-2.2.423.19.36.76.507 1.18.15.42.38.8.56 1.13.34-.39-.23-1.59.22-2.14.4-.1.37.34.45.56.22.67.39 1.6.9 2.02-.05-.65-.17-1.65.05-2.42.25.34.29.81.45 1.24.14.38.27.84.56 1.07-.12-.66-.14-1.41-.12-2.2.34-.1.43.32.5.51.29.71.43 1.6 1.01 2.02.12-.6-.25-1.76.06-2.37.32.3.31.9.51 1.35.08.19.23.44.34.62.1.16.25.46.45.39.01-.72-.12-1.67.17-2.25.15 0 .32-.02.39.06.29.69.44 1.52.85 2.08.47-.46-.02-1.52.45-1.97.37.2.31.73.45 1.13.14.37.29.77.57.96.09-.66.04-1.45.34-1.91.31.13.34.57.45.9.12.35.23.68.39.95.22-.28.08-1.27.33-1.69.47.37.4 1.28.96 1.57.16-.51-.07-1.25.22-1.52.4.48.41 1.36.9 1.75.16-.44.19-1.01.34-1.47.31.17.28.67.39 1.01.11.35.24.74.51.9.15-.63.3-1.27.5-1.86.31.53.38 1.3.73 1.8.37-.38-.03-1.52.39-1.85.34.09.38.69.5 1.07.13.41.28.75.45 1.07.27-.47-.22-1.72.28-2.09.37.18.3.69.45 1.07.14.37.38.74.62.96.04-.71-.08-1.58.34-1.91.39.21.13 1.07.62 1.19-.17.5.26.85.39 1.24.31-.63-.08-1.96.51-2.31.31.08.21.48.28.73.06.21.15.47.22.68.07.2.13.52.34.57.25-.48.23-1.23.56-1.63.35.34.23 1.16.67 1.41.18-.48.06-1.25.51-1.46.27.2.3.71.39 1.07.1.4.16.78.34 1.07.29-.49-.02-1.6.39-1.97.31.14.24.59.34.9.1.33.24.62.39.84.26-.2.1-.75.17-1.13.04-.18.11-.38.23-.45.27.1.17.45.22.68.13.59.25 1.31.62 1.63.21-.52.21-1.25.56-1.64.4.29.28 1.11.39 1.69zm-30.3-.673c.103-.665-.18-1.013-.34-1.41-.066-.17-.03-.33-.11-.45-.224-.33-.83-.59-1.293-.843-.37-.21-.79-.46-1.24-.73-.33-.21-1.14-.55-1.74-.51-1.25.09-2 1.32-1.292 2.48.62 1.02 2.82 1.94 4.224 2.08.83.08 1.59-.08 1.8-.62zm-53.82-.17c.357-.06.82-.365 1.24-.62.36-.22.95-.477.845-.96-.444.147-.8.454-1.127.73-.32.278-.587.62-.96.848zm-.11-.9c.463-.047.872-.453 1.295-.73.41-.274.967-.473 1.124-.96-.47.054-.85.484-1.24.787-.41.31-.82.6-1.18.9zm-3.32-1.3c.065.01.1-.013.113-.057 1.142-1.13 2.21-2.433 3.38-3.603.19-.19.42-.38.62-.563.163-.15.46-.3.45-.57-.596.05-1.01.56-1.41.9C6.42 5.5 5.47 6.85 4.52 8.19c-.03.046-.06.093-.057.17zM10.4 6.42l-.027-.086c.374-.44.325-1.102.507-1.633-.832.34-1.57.79-2.14 1.4.65-.08 1.12-.35 1.807-.4-.182.38-.622.5-.9.79.074.14.25-.09.393-.06l.072.07.096.04c-.58.64-1.335 1.11-1.97 1.69.008.07.088.06.167.06.604-.45 1.356-.75 1.97-1.18-.03-.2.168-.46 0-.62l.03-.08zm5.21-.48h.17c.122-.195.15-.488.167-.788-.156.218-.22.53-.337.788zm.9-.563c.63-.057.45-.86.395-1.408-.302.26-.404 1.01-.394 1.4zm1.184-.732c.202.034.272-.065.394-.113-.118-.262-.03-.722-.34-.788-.038.29-.13.676-.06.9z"/>
</svg>
