<svg xmlns="http://www.w3.org/2000/svg" viewBox="0 0 213 283.56"><defs><style>.a{fill:#52b1ba;}.b{fill:#a5a548;}.c{fill:#efc30a;}.d{fill:#2b2c3d;}.e{fill:#e3dcc1;}.f{fill:none;}.g{fill:#c5b980;}</style></defs><title>Jordan Amman</title><path class="a" d="M347.59,222.69a31.17,31.17,0,0,1-13.32,25.55l-80.16,56a15.84,15.84,0,0,1-17.54,0l-86.69-60.53A16.06,16.06,0,0,1,143,230.57V78.19H347.59Z" transform="translate(-136.31 -25.83)"/><path class="b" d="M347.59,222.69a31.17,31.17,0,0,1-13.32,25.55l-80.16,56a15.84,15.84,0,0,1-17.54,0l-86.69-60.53A16.06,16.06,0,0,1,143,230.57l-.35-27.17H347.24Z" transform="translate(-136.31 -25.83)"/><polygon class="c" points="196.53 223.92 23.66 223.92 6.8 212.59 5.21 177.01 210.5 177.01 209.44 209.69 196.53 223.92"/><path class="d" d="M16,4.79H202.33a9.75,9.75,0,0,1,9.75,9.75V62.33a0,0,0,0,1,0,0H6.27a0,0,0,0,1,0,0V14.54A9.75,9.75,0,0,1,16,4.79Z"/><path class="e" d="M331.64,33.89a9.56,9.56,0,0,1,9.67,9.72V228.29c0,5.46-3,12.43-7.54,15.49l-81.51,55.39a14.62,14.62,0,0,1-8.17,2.3,14.79,14.79,0,0,1-8.19-2.28l-83.25-55.43c-4.53-3.05-9.35-10-9.35-15.47V43.61c0-5.46,6.75-9.78,12.21-9.78H331.31m1.44-8H155.52c-10.11,0-19.21,8.22-19.21,17.78V228.29c0,8,5.59,17.43,12.41,22l82.61,55.43a24.17,24.17,0,0,0,25.53,0l81.37-55.39c6.63-4.49,11.08-13.76,11.08-22V43.61c0-4.75-1.38-9.36-4.59-12.58a16.8,16.8,0,0,0-12.05-5.21Z" transform="translate(-136.31 -25.83)"/><polygon class="f" points="9 212.39 9 8 206 8 206 212.39 107.75 278.92 9 212.39"/><path class="e" d="M191.75,70.32l-1.2,6.25h-3.19l5.94-31.05h5l5.94,31.05H200.8l-1.2-6.25Zm.44-3h6.92l-3.5-17.92Z" transform="translate(-136.31 -25.83)"/><path class="e" d="M222,76.53h-3.33l-5.15-24.71V76.57h-3V45.52h4.83l5.1,24.8,4.92-24.8h4.84V76.57h-3.28v-25Z" transform="translate(-136.31 -25.83)"/><path class="e" d="M248.7,76.53h-3.33l-5.15-24.71V76.57h-3V45.52h4.83l5.1,24.8,4.92-24.8h4.84V76.57h-3.28v-25Z" transform="translate(-136.31 -25.83)"/><path class="e" d="M267.51,70.32l-1.2,6.25h-3.19l5.94-31.05h5L280,76.57h-3.46l-1.2-6.25Zm.44-3h6.92l-3.5-17.92Z" transform="translate(-136.31 -25.83)"/><path class="e" d="M289.34,76.57h-3.1V45.52h4.39L297.81,68V45.52h3.06V76.57h-3.59l-7.94-25.11Z" transform="translate(-136.31 -25.83)"/><path class="e" d="M254.82,241.8H235.91V122.05a3.17,3.17,0,0,1,5.09-2.52l10.82,8.24a7.6,7.6,0,0,1,3,6Z" transform="translate(-136.31 -25.83)"/><path class="e" d="M285.43,115.39a5.68,5.68,0,0,1-5.3,3.63h-68a3.44,3.44,0,0,1-3.5-3.38v-6.81a3.44,3.44,0,0,1,3.5-3.38h72.24a3.3,3.3,0,0,1,3.18,4.44Z" transform="translate(-136.31 -25.83)"/><rect class="e" x="137.34" y="104.37" width="18.91" height="111.27"/><path class="g" d="M292.55,131H273.65l-3.06-9.35a1.9,1.9,0,0,1,1.81-2.5h21.41a1.9,1.9,0,0,1,1.81,2.5Z" transform="translate(-136.31 -25.83)"/><rect class="g" x="133.94" y="108.43" width="25.86" height="14.24" rx="4.68" ry="4.68"/><path class="c" d="M293,134.57H273.32a3.07,3.07,0,0,1-3.07-3.07h0a3.07,3.07,0,0,1,3.07-3.07H293a3.07,3.07,0,0,1,3.07,3.07h0A3.07,3.07,0,0,1,293,134.57Z" transform="translate(-136.31 -25.83)"/><rect class="e" x="61.7" y="104.37" width="18.91" height="111.27"/><path class="g" d="M216.92,131H198L195,121.63a1.9,1.9,0,0,1,1.81-2.5h21.41a1.9,1.9,0,0,1,1.81,2.5Z" transform="translate(-136.31 -25.83)"/><rect class="g" x="58.31" y="108.43" width="25.86" height="14.24" rx="4.68" ry="4.68"/><path class="c" d="M217.4,134.57H197.69a3.07,3.07,0,0,1-3.07-3.07h0a3.07,3.07,0,0,1,3.07-3.07H217.4a3.07,3.07,0,0,1,3.07,3.07h0A3.07,3.07,0,0,1,217.4,134.57Z" transform="translate(-136.31 -25.83)"/><path class="g" d="M217.4,244.15H197.69a3.07,3.07,0,0,1-3.07-3.07h0a3.07,3.07,0,0,1,3.07-3.07H217.4a3.07,3.07,0,0,1,3.07,3.07h0A3.07,3.07,0,0,1,217.4,244.15Z" transform="translate(-136.31 -25.83)"/><path class="g" d="M255.38,244.15H235.67a3.07,3.07,0,0,1-3.07-3.07h0a3.07,3.07,0,0,1,3.07-3.07h19.72a3.07,3.07,0,0,1,3.07,3.07h0A3.07,3.07,0,0,1,255.38,244.15Z" transform="translate(-136.31 -25.83)"/><path class="g" d="M293.36,244.15H273.64a3.07,3.07,0,0,1-3.07-3.07h0a3.07,3.07,0,0,1,3.07-3.07h19.72a3.07,3.07,0,0,1,3.07,3.07h0A3.07,3.07,0,0,1,293.36,244.15Z" transform="translate(-136.31 -25.83)"/><polygon class="e" points="186.34 230.33 30.16 230.33 14.61 218.47 200.92 218.47 186.34 230.33"/></svg>