<svg xmlns="http://www.w3.org/2000/svg" xmlns:xlink="http://www.w3.org/1999/xlink" viewBox="0 0 246.39 292.72"><defs><style>.a{fill:none;}.b{fill:#ed5439;}.c{fill:#2b2c3d;}.d{clip-path:url(#a);}.e{fill:#efc30a;}.f{fill:#52b1ba;}.g{fill:#e3dcc1;}</style><clipPath id="a" transform="translate(-120.7 -21.45)"><path class="a" d="M139.31,97.16c0-5.8,4.36-12.91,9.38-15.81l86.48-49.83c5-2.9,13.3-2.9,18.32,0l86,49.83c5,2.9,8.8,10,8.8,15.81V238.45c0,5.8-3.74,12.91-8.77,15.81l-86.17,49.83c-5,2.9-13.15,2.9-18.17,0l-86.56-49.83c-5-2.9-9.33-10-9.33-15.81Z"/></clipPath></defs><title>Jordan Dead Sea</title><path class="b" d="M139.31,97.16c0-5.8,4.36-12.91,9.38-15.81l86.48-49.83c5-2.9,13.3-2.9,18.32,0l86,49.83c5,2.9,8.8,10,8.8,15.81V238.45c0,5.8-3.74,12.91-8.77,15.81l-86.17,49.83c-5,2.9-13.15,2.9-18.17,0l-86.56-49.83c-5-2.9-9.33-10-9.33-15.81Z" transform="translate(-120.7 -21.45)"/><path class="c" d="M244.32,29.35a18.78,18.78,0,0,1,9.16,2.17l86,49.83c5,2.9,8.8,10,8.8,15.81V238.45c0,5.8-3.74,12.91-8.77,15.81l-86.17,49.83a20.05,20.05,0,0,1-18.16,0l-86.56-49.83c-5-2.9-9.34-10-9.34-15.81V97.16c0-5.8,4.36-12.91,9.38-15.81l86.48-49.83a18.74,18.74,0,0,1,9.15-2.17m0-7.91a26.61,26.61,0,0,0-13.11,3.23L144.69,74.5c-7.61,4.39-13.38,14.13-13.38,22.66V238.45c0,8.54,5.75,18.28,13.35,22.66l86.61,49.84a28,28,0,0,0,26.1,0l86.18-49.83c7.3-4.21,12.77-14,12.77-22.65V97.16c0-8.69-5.47-18.43-12.8-22.66L257.41,24.68a26.51,26.51,0,0,0-13.09-3.24Z" transform="translate(-120.7 -21.45)"/><g class="d"><path class="e" d="M244.31,148a1,1,0,0,1-1-1.05V24.72a1,1,0,1,1,2,0V147A1,1,0,0,1,244.31,148Z" transform="translate(-120.7 -21.45)"/><path class="e" d="M244.07,148A1.05,1.05,0,0,1,243,147l0-122.26a1.05,1.05,0,1,1,2.11,0l0,122.26A1.05,1.05,0,0,1,244.07,148Z" transform="translate(-120.7 -21.45)"/><path class="e" d="M244.1,148a1.05,1.05,0,0,1-1-.65L196.31,34.36a1.05,1.05,0,0,1,1.95-.81L245.07,146.5a1.06,1.06,0,0,1-1,1.46Z" transform="translate(-120.7 -21.45)"/><path class="e" d="M244.1,147.87a1.05,1.05,0,0,1-.75-.31L156.89,61.13a1.05,1.05,0,1,1,1.49-1.49l86.47,86.43a1.05,1.05,0,0,1-.75,1.8Z" transform="translate(-120.7 -21.45)"/><path class="e" d="M244.07,147.79a1,1,0,0,1-.4-.08L130.7,101a1.05,1.05,0,1,1,.81-1.95l113,46.76a1.05,1.05,0,0,1-.4,2Z" transform="translate(-120.7 -21.45)"/><path class="e" d="M121.75,147.76a1.05,1.05,0,0,1,0-2.11l122.26,0a1.05,1.05,0,1,1,0,2.11Z" transform="translate(-120.7 -21.45)"/><path class="e" d="M131,194.51a1.05,1.05,0,0,1-.4-2l112.94-46.81a1.05,1.05,0,1,1,.81,1.95L131.39,194.43A1,1,0,0,1,131,194.51Z" transform="translate(-120.7 -21.45)"/><path class="e" d="M157.42,234.17a1.05,1.05,0,0,1-.75-1.8L243.1,145.9a1.05,1.05,0,0,1,1.49,1.49l-86.43,86.47A1.05,1.05,0,0,1,157.42,234.17Z" transform="translate(-120.7 -21.45)"/><path class="e" d="M197,260.7a1.05,1.05,0,0,1-1-1.46l46.76-113a1.05,1.05,0,0,1,1.95.81L198,260A1.05,1.05,0,0,1,197,260.7Z" transform="translate(-120.7 -21.45)"/><path class="e" d="M243.74,270.05a1.06,1.06,0,0,1-1.05-1.05l0-122.26a1.05,1.05,0,0,1,2.11,0l0,122.26A1.05,1.05,0,0,1,243.74,270.05Z" transform="translate(-120.7 -21.45)"/><path class="e" d="M290.49,260.81a1.05,1.05,0,0,1-1-.65L242.71,147.22a1.05,1.05,0,0,1,1.95-.81l46.81,112.94a1.05,1.05,0,0,1-1,1.46Z" transform="translate(-120.7 -21.45)"/><path class="e" d="M330.15,234.39a1,1,0,0,1-.75-.31l-86.47-86.43a1.05,1.05,0,1,1,1.49-1.49l86.47,86.43a1.05,1.05,0,0,1-.74,1.8Z" transform="translate(-120.7 -21.45)"/><path class="e" d="M356.67,194.79a1,1,0,0,1-.4-.08L243.31,148a1.05,1.05,0,0,1,.81-1.95l113,46.76a1.05,1.05,0,0,1-.4,2Z" transform="translate(-120.7 -21.45)"/><path class="e" d="M243.77,148.09a1.05,1.05,0,1,1,0-2.11L366,146a1.05,1.05,0,0,1,0,2.11Z" transform="translate(-120.7 -21.45)"/><path class="e" d="M243.85,148.12a1.05,1.05,0,0,1-.4-2L356.39,99.28a1.05,1.05,0,1,1,.81,1.95L244.25,148A1.07,1.07,0,0,1,243.85,148.12Z" transform="translate(-120.7 -21.45)"/><path class="e" d="M243.93,148.12a1.05,1.05,0,0,1-.75-1.8l86.43-86.47a1.05,1.05,0,0,1,1.49,1.49l-86.43,86.47A1.05,1.05,0,0,1,243.93,148.12Z" transform="translate(-120.7 -21.45)"/><path class="e" d="M244,148.09a1.05,1.05,0,0,1-1-1.46l46.76-113a1.05,1.05,0,0,1,1.95.81L245,147.44A1.05,1.05,0,0,1,244,148.09Z" transform="translate(-120.7 -21.45)"/></g><circle class="e" cx="122.56" cy="135.56" r="34.08"/><path class="f" d="M348.31,147.83v90.63c0,5.8-3.74,12.91-8.77,15.81l-86.17,49.83c-5,2.9-13.15,2.9-18.17,0l-86.56-49.83c-5-2.9-9.33-10-9.33-15.81V147.83" transform="translate(-120.7 -21.45)"/><polygon class="e" points="230.09 227 204.26 245.71 41.94 245.44 15.06 227 15.06 192.48 230.09 192.48 230.09 227"/><path class="c" d="M244.32,29.35a18.78,18.78,0,0,1,9.16,2.17l86,49.83c5,2.9,8.8,10,8.8,15.81V238.45c0,5.8-3.74,12.91-8.77,15.81l-86.17,49.83a20.05,20.05,0,0,1-18.16,0l-86.56-49.83c-5-2.9-9.34-10-9.34-15.81V97.16c0-5.8,4.36-12.91,9.38-15.81l86.48-49.83a18.74,18.74,0,0,1,9.15-2.17m0-7.91a26.61,26.61,0,0,0-13.11,3.23L144.69,74.5c-7.61,4.39-13.38,14.13-13.38,22.66V238.45c0,8.54,5.75,18.28,13.35,22.66l86.61,49.84a28,28,0,0,0,26.1,0l86.18-49.83c7.3-4.21,12.77-14,12.77-22.65V97.16c0-8.69-5.47-18.43-12.8-22.66L257.41,24.68a26.51,26.51,0,0,0-13.09-3.24Z" transform="translate(-120.7 -21.45)"/><path class="g" d="M331.89,209.83h-175a1,1,0,0,1,0-2h175a1,1,0,0,1,0,2Z" transform="translate(-120.7 -21.45)"/><path class="g" d="M327.69,204.83H161.06c-.47,0-.85,0-.85-.5s.38-.5.85-.5H327.69c.47,0,.85,0,.85.5S328.16,204.83,327.69,204.83Z" transform="translate(-120.7 -21.45)"/><path class="g" d="M323.48,200.83H165.21a1,1,0,0,1,0-2H323.48a1,1,0,0,1,0,2Z" transform="translate(-120.7 -21.45)"/><path class="g" d="M319.28,196.83H169.36a1,1,0,0,1,0-2H319.28a1,1,0,0,1,0,2Z" transform="translate(-120.7 -21.45)"/><path class="g" d="M315.08,191.83H173.51c-.47,0-.85,0-.85-.5s.38-.5.85-.5H315.08c.47,0,.85,0,.85.5S315.55,191.83,315.08,191.83Z" transform="translate(-120.7 -21.45)"/><path class="g" d="M310.88,187.83H177.66a1,1,0,0,1,0-2H310.88a1,1,0,0,1,0,2Z" transform="translate(-120.7 -21.45)"/><path class="g" d="M306.67,183.83H181.81a1,1,0,0,1,0-2H306.67a1,1,0,0,1,0,2Z" transform="translate(-120.7 -21.45)"/><path class="g" d="M302.47,179.83H186a1,1,0,0,1,0-2H302.47a1,1,0,0,1,0,2Z" transform="translate(-120.7 -21.45)"/><path class="g" d="M298.27,174.83H190.1c-.47,0-.85,0-.85-.5s.38-.5.85-.5H298.27c.47,0,.85,0,.85.5S298.74,174.83,298.27,174.83Z" transform="translate(-120.7 -21.45)"/><path class="g" d="M294.06,170.83H194.25a1,1,0,0,1,0-2h99.81a1,1,0,0,1,0,2Z" transform="translate(-120.7 -21.45)"/><path class="g" d="M289.86,166.83H198.4a1,1,0,0,1,0-2h91.46a1,1,0,0,1,0,2Z" transform="translate(-120.7 -21.45)"/><path class="g" d="M285.66,161.83H202.55c-.47,0-.85,0-.85-.5s.38-.5.85-.5h83.11c.47,0,.85,0,.85.5S286.13,161.83,285.66,161.83Z" transform="translate(-120.7 -21.45)"/><path class="g" d="M281.46,157.83H206.7a1,1,0,0,1,0-2h74.76a1,1,0,0,1,0,2Z" transform="translate(-120.7 -21.45)"/><path class="g" d="M277.25,153.83H210.85a1,1,0,0,1,0-2h66.41a1,1,0,0,1,0,2Z" transform="translate(-120.7 -21.45)"/><path class="c" d="M168.43,224.25h7.72c4.88,0,7.28,2.71,7.28,7.67v15.7c0,5-2.4,7.67-7.28,7.67h-7.72Zm4.88,4.44v22.18h2.75c1.55,0,2.48-.8,2.48-3V231.71c0-2.22-.93-3-2.48-3Z" transform="translate(-120.7 -21.45)"/><path class="c" d="M195,237.34h6.7v4.44H195v9.09h8.43v4.44H190.07V224.25h13.31v4.44H195Z" transform="translate(-120.7 -21.45)"/><path class="c" d="M225.74,255.3h-4.92l-.84-5.63h-6l-.84,5.63h-4.48l5-31.05h7.14Zm-11.13-9.85h4.7L217,229.75Z" transform="translate(-120.7 -21.45)"/><path class="c" d="M231.55,224.25h7.72c4.88,0,7.28,2.71,7.28,7.67v15.7c0,5-2.4,7.67-7.28,7.67h-7.72Zm4.88,4.44v22.18h2.75c1.55,0,2.48-.8,2.48-3V231.71c0-2.22-.93-3-2.48-3Z" transform="translate(-120.7 -21.45)"/><path class="c" d="M270.19,223.9c4.75,0,7.19,2.84,7.19,7.81v1h-4.61V231.4c0-2.22-.89-3.06-2.44-3.06s-2.44.84-2.44,3.06c0,6.39,9.54,7.59,9.54,16.46,0,5-2.48,7.81-7.27,7.81s-7.27-2.84-7.27-7.81v-1.91h4.61v2.22c0,2.22,1,3,2.53,3s2.53-.8,2.53-3c0-6.39-9.54-7.59-9.54-16.46C263,226.74,265.44,223.9,270.19,223.9Z" transform="translate(-120.7 -21.45)"/><path class="c" d="M288.64,237.34h6.7v4.44h-6.7v9.09h8.43v4.44H283.76V224.25h13.31v4.44h-8.43Z" transform="translate(-120.7 -21.45)"/><path class="c" d="M319.43,255.3H314.5l-.84-5.63h-6l-.84,5.63h-4.48l5-31.05h7.14Zm-11.13-9.85H313l-2.35-15.7Z" transform="translate(-120.7 -21.45)"/><path class="c" d="M180.93,99.86s-.05-.16-.13-.45l-.14-.55c0-.11-.06-.22-.08-.35l0-.41c0-.29-.06-.63-.08-1s0-.74,0-1.17.13-.85.2-1.33.26-.94.4-1.46.4-1,.66-1.53a12.54,12.54,0,0,1,.94-1.54,12.85,12.85,0,0,1,2.75-2.83c.28-.2.57-.41.86-.61s.62-.35.93-.53l.48-.26.5-.22c.34-.14.68-.29,1-.4a14.91,14.91,0,0,1,4.41-.73H194l.23,0,.47,0H195l.26,0,.61.09a8.62,8.62,0,0,1,1.17.23l1.07.31a12.15,12.15,0,0,1,2,.88c.31.18.64.33.93.53s.58.4.86.61a13.16,13.16,0,0,1,3.7,4.37c.26.52.47,1,.66,1.53s.32,1,.4,1.46.17.91.2,1.33,0,.81,0,1.17-.05.69-.08,1l0,.41c0,.13-.06.25-.08.36l-.14.56c-.08.3-.13.45-.13.45l-.17-.44c-.12-.28-.23-.7-.48-1.2l-.37-.81c-.16-.28-.32-.58-.49-.9s-.4-.62-.61-1-.48-.64-.73-1a13.88,13.88,0,0,0-1.87-1.87,12.86,12.86,0,0,0-2.34-1.56,13.88,13.88,0,0,0-2.72-1l-.72-.15a1.8,1.8,0,0,0-.34-.05l-.32,0-.32-.05-.2,0h-.23l-.47,0h-.33A12.2,12.2,0,0,0,188,91.15a14,14,0,0,0-3.35,2.47c-.31.31-.58.65-.87,1s-.51.65-.73,1-.43.64-.61,1-.33.62-.49.9l-.36.79a12.1,12.1,0,0,0-.48,1.22C181,99.7,180.93,99.86,180.93,99.86Z" transform="translate(-120.7 -21.45)"/><path class="c" d="M206.37,99.86s-.05-.16-.13-.45l-.14-.55c0-.11-.06-.22-.08-.35l0-.41c0-.29-.06-.63-.08-1s0-.74,0-1.17.13-.85.2-1.33.26-.94.4-1.46.4-1,.66-1.53a12.57,12.57,0,0,1,.94-1.54,12.85,12.85,0,0,1,2.75-2.83c.28-.2.57-.41.86-.61s.62-.35.93-.53l.48-.26.5-.22c.34-.14.68-.28,1-.4a14.9,14.9,0,0,1,4.41-.73h.37l.23,0,.47,0h.23l.26,0,.6.09a8.63,8.63,0,0,1,1.17.23l1.07.31a12.17,12.17,0,0,1,2,.88c.31.18.63.33.93.53s.58.4.86.61a13.16,13.16,0,0,1,3.7,4.37c.26.52.47,1,.66,1.53s.31,1,.4,1.46.17.91.2,1.33,0,.81,0,1.17-.05.69-.08,1l0,.41c0,.13-.06.25-.08.36l-.14.56c-.08.3-.13.45-.13.45l-.17-.44c-.12-.28-.23-.7-.48-1.2l-.37-.81c-.16-.28-.32-.58-.49-.9s-.4-.62-.61-1-.48-.64-.73-1a13.94,13.94,0,0,0-1.87-1.87,12.86,12.86,0,0,0-2.34-1.56,13.89,13.89,0,0,0-2.72-1l-.72-.15a1.8,1.8,0,0,0-.34-.05l-.32,0-.32-.05-.2,0h-.23l-.47,0h-.33a12.17,12.17,0,0,0-5.66,1.38,14,14,0,0,0-3.35,2.47c-.31.31-.58.65-.87,1s-.51.65-.73,1-.43.64-.61,1-.33.62-.49.9l-.36.79a12.15,12.15,0,0,0-.48,1.22C206.44,99.7,206.37,99.86,206.37,99.86Z" transform="translate(-120.7 -21.45)"/><path class="g" d="M331.89,209.83h-175a1,1,0,0,1,0-2h175a1,1,0,0,1,0,2Z" transform="translate(-120.7 -21.45)"/><path class="g" d="M327.69,204.83H161.06c-.47,0-.85,0-.85-.5s.38-.5.85-.5H327.69c.47,0,.85,0,.85.5S328.16,204.83,327.69,204.83Z" transform="translate(-120.7 -21.45)"/><path class="g" d="M323.48,200.83H165.21a1,1,0,0,1,0-2H323.48a1,1,0,0,1,0,2Z" transform="translate(-120.7 -21.45)"/><path class="g" d="M319.28,196.83H169.36a1,1,0,0,1,0-2H319.28a1,1,0,0,1,0,2Z" transform="translate(-120.7 -21.45)"/><path class="g" d="M315.08,191.83H173.51c-.47,0-.85,0-.85-.5s.38-.5.85-.5H315.08c.47,0,.85,0,.85.5S315.55,191.83,315.08,191.83Z" transform="translate(-120.7 -21.45)"/><path class="g" d="M310.88,187.83H177.66a1,1,0,0,1,0-2H310.88a1,1,0,0,1,0,2Z" transform="translate(-120.7 -21.45)"/><path class="g" d="M306.67,183.83H181.81a1,1,0,0,1,0-2H306.67a1,1,0,0,1,0,2Z" transform="translate(-120.7 -21.45)"/><path class="g" d="M302.47,179.83H186a1,1,0,0,1,0-2H302.47a1,1,0,0,1,0,2Z" transform="translate(-120.7 -21.45)"/><path class="g" d="M298.27,174.83H190.1c-.47,0-.85,0-.85-.5s.38-.5.85-.5H298.27c.47,0,.85,0,.85.5S298.74,174.83,298.27,174.83Z" transform="translate(-120.7 -21.45)"/><path class="g" d="M294.06,170.83H194.25a1,1,0,0,1,0-2h99.81a1,1,0,0,1,0,2Z" transform="translate(-120.7 -21.45)"/><path class="g" d="M289.86,166.83H198.4a1,1,0,0,1,0-2h91.46a1,1,0,0,1,0,2Z" transform="translate(-120.7 -21.45)"/><path class="g" d="M285.66,161.83H202.55c-.47,0-.85,0-.85-.5s.38-.5.85-.5h83.11c.47,0,.85,0,.85.5S286.13,161.83,285.66,161.83Z" transform="translate(-120.7 -21.45)"/><path class="g" d="M281.46,157.83H206.7a1,1,0,0,1,0-2h74.76a1,1,0,0,1,0,2Z" transform="translate(-120.7 -21.45)"/><path class="g" d="M277.25,153.83H210.85a1,1,0,0,1,0-2h66.41a1,1,0,0,1,0,2Z" transform="translate(-120.7 -21.45)"/></svg>