<svg xmlns="http://www.w3.org/2000/svg" viewBox="0 0 326 265"><defs><style>.a{fill:#ed5439;}.b{fill:#f29331;}.c{fill:#52b1ba;}.d{fill:#efc30a;}.e{fill:#2b2c3d;}.f{fill:#e3dcc1;}</style></defs><title>Jordan Petra</title><rect class="a" x="10.15" y="11.32" width="305.08" height="243.29" rx="13.59" ry="13.59"/><path class="b" d="M11.87,229.38H315.71a0,0,0,0,1,0,0V241.3a13.11,13.11,0,0,1-13.11,13.11H25A13.11,13.11,0,0,1,11.87,241.3V229.38a0,0,0,0,1,0,0Z"/><path class="c" d="M406.31,275.69a24.13,24.13,0,0,1-24.13,24.13H104.44a24.13,24.13,0,0,1-24.13-24.13V59a24.13,24.13,0,0,1,24.13-24.13H382.17A24.13,24.13,0,0,1,406.31,59Zm-11-216.27a13.59,13.59,0,0,0-13.59-13.59H103.9A13.59,13.59,0,0,0,90.31,59.42V275.23a13.59,13.59,0,0,0,13.59,13.59H381.72a13.59,13.59,0,0,0,13.59-13.59Z" transform="translate(-80.31 -34.83)"/><rect class="d" x="11.87" y="224.37" width="303.84" height="8.96"/><rect class="b" x="11.87" y="215.68" width="303.84" height="8.96"/><rect class="b" x="76.44" y="14.88" width="173.92" height="191.84"/><rect class="e" x="263.01" y="14.88" width="21.67" height="191.84"/><rect class="e" x="42.71" y="14.88" width="21.67" height="191.84"/><rect class="e" x="92.6" y="135.2" width="141.6" height="72.86"/><rect class="a" x="136.98" y="134.55" width="9.66" height="72.73"/><rect class="a" x="117.47" y="134.55" width="9.66" height="72.73"/><rect class="a" x="92.51" y="134.55" width="9.66" height="72.73"/><rect class="a" x="200.82" y="134.55" width="9.66" height="72.73"/><rect class="a" x="224.62" y="134.55" width="9.66" height="72.73"/><rect class="a" x="181.31" y="134.55" width="9.66" height="72.73"/><rect class="d" x="11.87" y="206.72" width="303.84" height="8.96"/><path class="a" d="M318.54,172.5H168.87a4.48,4.48,0,0,1-4.48-4.48h0a4.48,4.48,0,0,1,4.48-4.48H318.54A4.48,4.48,0,0,1,323,168h0A4.48,4.48,0,0,1,318.54,172.5Z" transform="translate(-80.31 -34.83)"/><path class="a" d="M318.54,84.14H168.87a4.48,4.48,0,0,1-4.48-4.48h0a4.48,4.48,0,0,1,4.48-4.48H318.54A4.48,4.48,0,0,1,323,79.66h0A4.48,4.48,0,0,1,318.54,84.14Z" transform="translate(-80.31 -34.83)"/><rect class="e" x="207.4" y="48.08" width="21.08" height="54.81"/><rect class="e" x="152.06" y="48.08" width="21.08" height="54.81"/><rect class="e" x="97.25" y="48.08" width="21.08" height="54.81"/><path class="a" d="M320.93,140.33H166.48a2.1,2.1,0,0,1-2.1-2.1h0a2.1,2.1,0,0,1,2.1-2.1H320.93a2.1,2.1,0,0,1,2.1,2.1h0A2.09,2.09,0,0,1,320.93,140.33Z" transform="translate(-80.31 -34.83)"/><rect class="a" x="203.45" y="46.17" width="6.85" height="57.12"/><rect class="a" x="226.37" y="46.17" width="6.85" height="57.12"/><rect class="a" x="147.98" y="46.17" width="6.85" height="57.12"/><rect class="a" x="170.9" y="46.17" width="6.85" height="57.12"/><rect class="a" x="92.51" y="46.17" width="6.85" height="57.12"/><rect class="a" x="115.43" y="46.17" width="6.85" height="57.12"/><polygon class="a" points="162.79 99.26 224 123.71 101.59 123.71 162.79 99.26"/><path class="b" d="M243.1,134.09l61.2,24.45H181.9l61.2-24.45m1.76-4.41h-3.52l-61.2,24.45,1.76,9.15H304.31l1.76-9.15-61.21-24.45Z" transform="translate(-80.31 -34.83)"/><polygon class="f" points="13.17 76.94 128.15 11.06 227.05 10.89 11.59 135.71 13.17 76.94"/><path class="e" d="M109.51,118.93a36.7,36.7,0,0,1,5-3.48c2.7-1.58,5-2.12,7-1.72a6.59,6.59,0,0,1,4.45,3.34,7.22,7.22,0,0,1,1,5.47c-.54,2.38-2.43,4.55-5.1,6.11a10.89,10.89,0,0,1-2.31,1.1l5,8.47-2.73,1.6Zm8.71,8.59a10.61,10.61,0,0,0,2.39-1.11c3.29-1.93,4.36-4.71,2.65-7.63s-4.41-3-7.42-1.21a13.31,13.31,0,0,0-2.44,1.73Z" transform="translate(-80.31 -34.83)"/><path class="e" d="M146.09,112.2,137.87,117l4.48,7.62,9.16-5.38,1.34,2.29-11.88,7L128.55,107.4,140,100.7l1.34,2.29-8.69,5.1,3.92,6.68,8.21-4.83Z" transform="translate(-80.31 -34.83)"/><path class="e" d="M152.37,96.54l-6.43,3.78L144.58,98l15.65-9.19,1.36,2.32-6.46,3.79,11,18.81-2.76,1.62Z" transform="translate(-80.31 -34.83)"/><path class="e" d="M165.25,86.23a32.87,32.87,0,0,1,5-3.51c2.92-1.71,5.11-2.29,7.13-1.87a6.11,6.11,0,0,1,4,3,6.43,6.43,0,0,1-.81,7.73l.05.09c2-.39,3.82.54,5.61,2.44a39,39,0,0,0,5,4.84l-2.82,1.66a31.81,31.81,0,0,1-4.38-4.22c-2.34-2.55-4.11-3-6.65-1.62l-2.57,1.51,5.38,9.16-2.73,1.6Zm8.38,8,2.79-1.64c2.92-1.71,3.83-4.4,2.41-6.81-1.6-2.73-4.28-2.76-7.18-1.1a13,13,0,0,0-2.55,1.83Z" transform="translate(-80.31 -34.83)"/><path class="e" d="M196.55,87l1.71,7.94-2.82,1.66L190.2,71.2l3.29-1.93,19.62,16.9-2.92,1.71L204,82.56Zm5.68-6.2-5.64-4.87c-1.28-1.1-2.33-2.17-3.36-3.21l-.06,0c.42,1.44.83,2.93,1.18,4.45l1.52,7.33Z" transform="translate(-80.31 -34.83)"/><path class="f" d="M381.88,293.1H104a16.77,16.77,0,0,1-16.76-16.76V60.24A16.77,16.77,0,0,1,104,43.49H381.88a16.77,16.77,0,0,1,16.76,16.76v216.1A16.77,16.77,0,0,1,381.88,293.1ZM104,49.81A10.44,10.44,0,0,0,93.55,60.24v216.1A10.44,10.44,0,0,0,104,286.78H381.88a10.44,10.44,0,0,0,10.43-10.43V60.24a10.44,10.44,0,0,0-10.43-10.43Z" transform="translate(-80.31 -34.83)"/></svg>