<svg xmlns="http://www.w3.org/2000/svg" viewBox="0 0 271 327"><defs><style>.a{fill:#52b1ba;}.b{fill:#efc30a;}.c{fill:#e3dcc1;}.d{fill:#c5b980;}.e{fill:#2b2c3d;}.f{fill:#a5a548;}.g{fill:#9f9560;}</style></defs><title>Jordan Jurash</title><rect class="a" width="271" height="327" rx="20.92" ry="20.92"/><rect class="a" x="11" y="11.06" width="250.34" height="210.39" rx="11.45" ry="11.45"/><path class="a" d="M127.16,15.94H358.87a11.39,11.39,0,0,1,11.39,11.39V85.51h-253" transform="translate(-107.31 -3.83)"/><path class="b" d="M116.56,223.23l-.3,18.32c53.18-43.75,131.35-87.72,205.4-87.72H118.38S116.34,223,116.56,223.23Z" transform="translate(-107.31 -3.83)"/><path class="a" d="M120.31,85.83V27.7c1-5.63,6.22-11.58,6.22-11.58A305.71,305.71,0,0,0,321.66,85.83Z" transform="translate(-107.31 -3.83)"/><path class="c" d="M130.85,14.63a312.8,312.8,0,0,0,82.69,45.19A319.45,319.45,0,0,0,322.31,78.9v-.08h49v-12H339.83c-76.28,0-139.82-32.6-173-53-2.28-1.4-11.42.19-20.2.37S129.44,13.56,130.85,14.63Z" transform="translate(-107.31 -3.83)"/><path class="d" d="M120.31,318.83H347a20,20,0,0,0,20.31-20.29V153.83H334.1a7.65,7.65,0,0,1,1.42.33c-.51,0-1,.09-1.53.09s-.94.06-1.85.06c-81.28.42-155.82,35.21-213.23,85.53" transform="translate(-107.31 -3.83)"/><rect class="b" x="8.34" y="121.07" width="252.48" height="35.27"/><path class="d" d="M122.46,15.34a313.28,313.28,0,0,0,91.08,51.78A319.43,319.43,0,0,0,322.31,86.19v-.37h49v-11H339.83C253,74.83,182.75,34.9,154.91,16.67,150.8,14,121.92,14.9,122.46,15.34Z" transform="translate(-107.31 -3.83)"/><path class="e" d="M337.78,166.83a7.17,7.17,0,0,1,1.33.31c-.48,0-1,.09-1.43.09s-.83.06-1.68.06c-85,.44-161.68,47.27-217.68,103.33v31.77a19.34,19.34,0,0,0,19.27,19.45H349.86a19.5,19.5,0,0,0,19.45-19.45V166.83Z" transform="translate(-107.31 -3.83)"/><path class="f" d="M167.27,321.78c-3,2.84,191.15-1.19,191.15-1.19l11.24-8.2-.9-80.68C290.21,229.9,220.4,271.21,167.27,321.78Z" transform="translate(-107.31 -3.83)"/><rect class="c" x="210" y="81" width="17" height="69"/><rect class="g" x="209.56" y="146.55" width="19.43" height="7.92" rx="1.82" ry="1.82"/><path class="d" d="M335.44,151h-18a1.65,1.65,0,0,1-1.65-1.65h0a1.65,1.65,0,0,1,1.65-1.65h18a1.65,1.65,0,0,1,1.65,1.65h0A1.65,1.65,0,0,1,335.44,151Z" transform="translate(-107.31 -3.83)"/><path class="g" d="M335.44,160.92h-18a1.65,1.65,0,0,1-1.65-1.65h0a1.65,1.65,0,0,1,1.65-1.65h18a1.65,1.65,0,0,1,1.65,1.65h0A1.65,1.65,0,0,1,335.44,160.92Z" transform="translate(-107.31 -3.83)"/><rect class="g" x="209.56" y="78.11" width="19.43" height="7.92" rx="1.82" ry="1.82"/><path class="g" d="M335.44,82.61h-18A1.65,1.65,0,0,1,315.79,81h0a1.65,1.65,0,0,1,1.65-1.65h18A1.65,1.65,0,0,1,337.09,81h0A1.65,1.65,0,0,1,335.44,82.61Z" transform="translate(-107.31 -3.83)"/><path class="d" d="M335.44,92.48h-18a1.65,1.65,0,0,1-1.65-1.65h0a1.65,1.65,0,0,1,1.65-1.65h18a1.65,1.65,0,0,1,1.65,1.65h0A1.65,1.65,0,0,1,335.44,92.48Z" transform="translate(-107.31 -3.83)"/><rect class="c" x="177" y="79" width="18" height="74"/><rect class="g" x="176.93" y="149.29" width="19.43" height="7.92" rx="1.82" ry="1.82"/><path class="d" d="M302.81,153.78h-18a1.65,1.65,0,0,1-1.65-1.65h0a1.65,1.65,0,0,1,1.65-1.65h18a1.65,1.65,0,0,1,1.65,1.65h0A1.65,1.65,0,0,1,302.81,153.78Z" transform="translate(-107.31 -3.83)"/><path class="g" d="M302.81,163.66h-18a1.65,1.65,0,0,1-1.65-1.65h0a1.65,1.65,0,0,1,1.65-1.65h18a1.65,1.65,0,0,1,1.65,1.65h0A1.65,1.65,0,0,1,302.81,163.66Z" transform="translate(-107.31 -3.83)"/><rect class="g" x="176.93" y="75.91" width="19.43" height="7.92" rx="1.82" ry="1.82"/><path class="g" d="M302.81,80.41h-18a1.65,1.65,0,0,1-1.65-1.65h0a1.65,1.65,0,0,1,1.65-1.65h18a1.65,1.65,0,0,1,1.65,1.65h0A1.65,1.65,0,0,1,302.81,80.41Z" transform="translate(-107.31 -3.83)"/><path class="d" d="M302.81,90.28h-18a1.65,1.65,0,0,1-1.65-1.65h0A1.65,1.65,0,0,1,284.81,87h18a1.65,1.65,0,0,1,1.65,1.65h0A1.65,1.65,0,0,1,302.81,90.28Z" transform="translate(-107.31 -3.83)"/><rect class="c" x="78" y="49" width="21" height="132"/><rect class="g" x="77.09" y="47.76" width="23.89" height="9.62" rx="2.23" ry="2.23"/><rect class="g" x="75.76" y="44.56" width="26.21" height="4.01" rx="1.75" ry="1.75"/><rect class="d" x="75.76" y="56.56" width="26.21" height="4.01" rx="1.75" ry="1.75"/><rect class="c" x="145" y="73" width="19" height="85"/><rect class="g" x="144.33" y="154.3" width="20.26" height="7.92" rx="1.86" ry="1.86"/><path class="d" d="M271.08,158.8H252.16a1.65,1.65,0,0,1-1.65-1.65h0a1.65,1.65,0,0,1,1.65-1.65h18.91a1.65,1.65,0,0,1,1.65,1.65h0A1.65,1.65,0,0,1,271.08,158.8Z" transform="translate(-107.31 -3.83)"/><path class="g" d="M271.08,168.67H252.16a1.65,1.65,0,0,1-1.65-1.65h0a1.65,1.65,0,0,1,1.65-1.65h18.91a1.65,1.65,0,0,1,1.65,1.65h0A1.65,1.65,0,0,1,271.08,168.67Z" transform="translate(-107.31 -3.83)"/><rect class="g" x="144.33" y="70.36" width="20.26" height="7.92" rx="1.86" ry="1.86"/><path class="g" d="M271.08,74.86H252.16a1.65,1.65,0,0,1-1.65-1.65h0a1.65,1.65,0,0,1,1.65-1.65h18.91a1.65,1.65,0,0,1,1.65,1.65h0A1.65,1.65,0,0,1,271.08,74.86Z" transform="translate(-107.31 -3.83)"/><path class="d" d="M271.08,84.74H252.16a1.65,1.65,0,0,1-1.65-1.65h0a1.65,1.65,0,0,1,1.65-1.65h18.91a1.65,1.65,0,0,1,1.65,1.65h0A1.65,1.65,0,0,1,271.08,84.74Z" transform="translate(-107.31 -3.83)"/><rect class="c" x="244" y="81" width="15" height="69"/><rect class="g" x="242.83" y="146.55" width="19.43" height="7.92" rx="1.82" ry="1.82"/><path class="d" d="M368.71,151h-18a1.65,1.65,0,0,1-1.65-1.65h0a1.65,1.65,0,0,1,1.65-1.65h18a1.65,1.65,0,0,1,1.65,1.65h0A1.65,1.65,0,0,1,368.71,151Z" transform="translate(-107.31 -3.83)"/><path class="g" d="M368.71,160.92h-18a1.65,1.65,0,0,1-1.65-1.65h0a1.65,1.65,0,0,1,1.65-1.65h18a1.65,1.65,0,0,1,1.65,1.65h0A1.65,1.65,0,0,1,368.71,160.92Z" transform="translate(-107.31 -3.83)"/><rect class="g" x="242.83" y="78.11" width="19.43" height="7.92" rx="1.82" ry="1.82"/><path class="g" d="M368.71,82.61h-18A1.65,1.65,0,0,1,349.06,81h0a1.65,1.65,0,0,1,1.65-1.65h18A1.65,1.65,0,0,1,370.37,81h0A1.65,1.65,0,0,1,368.71,82.61Z" transform="translate(-107.31 -3.83)"/><path class="d" d="M368.71,92.48h-18a1.65,1.65,0,0,1-1.65-1.65h0a1.65,1.65,0,0,1,1.65-1.65h18a1.65,1.65,0,0,1,1.65,1.65h0A1.65,1.65,0,0,1,368.71,92.48Z" transform="translate(-107.31 -3.83)"/><path class="c" d="M334.1,163.83c.51,0,1,.49,1.42.57-.51,0-1,.21-1.53.21s-.94.12-1.85.12c-81.83.42-156.79,45.63-214.36,98.41-3.12,2.86-.58,4.54-.16,8.35s-1.27,9.81.18,8.41c58.67-56.41,136.89-105.57,223.32-106l26.18.1V163.83Z" transform="translate(-107.31 -3.83)"/><rect class="g" x="77.09" y="177.2" width="23.89" height="9.62" rx="2.23" ry="2.23"/><rect class="d" x="75.76" y="174" width="26.21" height="4.01" rx="1.75" ry="1.75"/><rect class="g" x="75.76" y="186" width="26.21" height="4.01" rx="1.75" ry="1.75"/><rect class="c" x="12" y="14" width="23" height="205"/><path class="g" d="M142,25.75H122.39a2.57,2.57,0,0,1-2.57-2.57L131,13.42h11A2.57,2.57,0,0,1,144.57,16v7.2A2.57,2.57,0,0,1,142,25.75Z" transform="translate(-107.31 -3.83)"/><rect class="d" x="8.7" y="20.88" width="29.66" height="5.15" rx="2.11" ry="2.11"/><path class="g" d="M141.88,228.19h-23.8l-.56-9.65a2.68,2.68,0,0,1,2.68-2.68h21.68a2.68,2.68,0,0,1,2.68,2.68v7A2.68,2.68,0,0,1,141.88,228.19Z" transform="translate(-107.31 -3.83)"/><rect class="d" x="8.7" y="207.94" width="29.66" height="5.15" rx="2.11" ry="2.11"/><rect class="c" x="45" y="30" width="22" height="170"/><rect class="g" x="44.02" y="28.99" width="24.83" height="10.35" rx="2.36" ry="2.36"/><rect class="g" x="42.63" y="25.55" width="27.23" height="4.32" rx="1.85" ry="1.85"/><rect class="d" x="42.63" y="38.46" width="27.23" height="4.32" rx="1.85" ry="1.85"/><rect class="g" x="44.02" y="196.11" width="24.83" height="10.35" rx="2.36" ry="2.36"/><rect class="d" x="42.63" y="192.67" width="27.23" height="4.32" rx="1.85" ry="1.85"/><rect class="g" x="42.63" y="205.57" width="27.23" height="4.32" rx="1.85" ry="1.85"/><rect class="c" x="111" y="63" width="20" height="105"/><rect class="g" x="109.87" y="164.55" width="23.38" height="7.92" rx="2" ry="2"/><path class="d" d="M239.86,169.05H217.53a1.65,1.65,0,0,1-1.65-1.65h0a1.65,1.65,0,0,1,1.65-1.65h22.33a1.65,1.65,0,0,1,1.65,1.65h0A1.65,1.65,0,0,1,239.86,169.05Z" transform="translate(-107.31 -3.83)"/><path class="g" d="M239.86,178.93H217.53a1.65,1.65,0,0,1-1.65-1.65h0a1.65,1.65,0,0,1,1.65-1.65h22.33a1.65,1.65,0,0,1,1.65,1.65h0A1.65,1.65,0,0,1,239.86,178.93Z" transform="translate(-107.31 -3.83)"/><rect class="g" x="109.87" y="61" width="23.38" height="7.92" rx="2" ry="2"/><path class="g" d="M239.86,65.5H217.53a1.65,1.65,0,0,1-1.65-1.65h0a1.65,1.65,0,0,1,1.65-1.65h22.33a1.65,1.65,0,0,1,1.65,1.65h0A1.65,1.65,0,0,1,239.86,65.5Z" transform="translate(-107.31 -3.83)"/><path class="d" d="M239.86,75.37H217.53a1.65,1.65,0,0,1-1.65-1.65h0a1.65,1.65,0,0,1,1.65-1.65h22.33a1.65,1.65,0,0,1,1.65,1.65h0A1.65,1.65,0,0,1,239.86,75.37Z" transform="translate(-107.31 -3.83)"/><path class="c" d="M354.77,324.7H131.87a17.05,17.05,0,0,1-17-17V29.14a17.05,17.05,0,0,1,17-17h222.9a17.05,17.05,0,0,1,17,17V307.67A17.05,17.05,0,0,1,354.77,324.7ZM131.87,18.54a10.62,10.62,0,0,0-10.6,10.6V307.67a10.62,10.62,0,0,0,10.6,10.6h222.9a10.62,10.62,0,0,0,10.6-10.6V29.14a10.62,10.62,0,0,0-10.6-10.6Z" transform="translate(-107.31 -3.83)"/><path class="c" d="M152.8,270.83l3-2.58,13.39,15.59c5.32,6.19,3.91,10.7-.1,14.15a12.85,12.85,0,0,1-3.69,2.21l-1.66-2.84a9.45,9.45,0,0,0,2.91-1.72c2.7-2.32,3.25-4.89-.67-9.46Z" transform="translate(-107.31 -3.83)"/><path class="c" d="M172.62,254.79l10.72,14.69c4.06,5.56,8.25,6.12,11.56,3.7,3.68-2.69,4.26-6.84.26-12.32l-10.72-14.69,3.24-2.37,10.56,14.47c5.56,7.62,3.83,13.68-1.54,17.6-5.08,3.71-11,3.6-16.65-4.1l-10.67-14.62Z" transform="translate(-107.31 -3.83)"/><path class="c" d="M203.16,234.21a41.3,41.3,0,0,1,6.22-4.43c3.65-2.16,6.4-2.89,8.93-2.37a7.65,7.65,0,0,1,5.05,3.79,8.07,8.07,0,0,1-1,9.69l.07.12c2.46-.5,4.79.66,7,3,3,3.17,5.18,5.35,6.33,6l-3.53,2.09c-.87-.49-2.81-2.42-5.5-5.27-2.94-3.18-5.17-3.72-8.34-2l-3.22,1.9L222,258.27l-3.41,2Zm10.54,10,3.49-2.07c3.65-2.16,4.78-5.53,3-8.55-2-3.41-5.37-3.44-9-1.34a16.34,16.34,0,0,0-3.19,2.31Z" transform="translate(-107.31 -3.83)"/><path class="c" d="M247.9,233.19,249,243.3,245.29,245,242,212.74l4.35-2,22.32,23.57-3.85,1.76-7-7.42Zm7.87-7-6.42-6.79c-1.46-1.54-2.63-3-3.78-4.43l-.08,0c.34,1.85.67,3.76.91,5.7l1,9.33Z" transform="translate(-107.31 -3.83)"/><path class="c" d="M278.64,225.48a14.06,14.06,0,0,0,7.38-.3c3.86-1.26,5.44-4,4.48-7-.89-2.73-3-3.78-7.4-4-5.32-.13-9.07-1.64-10.41-5.75-1.49-4.55,1.18-9.16,6.85-11a14,14,0,0,1,6.92-.68l0,3.42a12.24,12.24,0,0,0-6,.42c-4,1.3-4.72,4.18-4.07,6.17.89,2.73,3.11,3.49,7.65,3.74,5.56.29,8.85,1.85,10.25,6.14,1.47,4.51-.59,9.49-7.48,11.75a15.88,15.88,0,0,1-8.06.57Z" transform="translate(-107.31 -3.83)"/><path class="c" d="M308.16,190.14l2.39,12.63,14.6-2.76-2.39-12.63,3.94-.74,5.7,30.19-3.94.74-2.67-14.15-14.6,2.76,2.67,14.15-3.9.74-5.7-30.19Z" transform="translate(-107.31 -3.83)"/></svg>