<svg xmlns="http://www.w3.org/2000/svg" viewBox="0 0 273.86 273.86"><defs><style>.a{fill:#52b1ba;}.b{fill:#ed5439;}.c{fill:#2b2c3d;}.d{fill:#efc30a;}.e{fill:#f29331;}.f{fill:#e3dcc1;}</style></defs><title>Jordan Wadi Rum</title><circle class="a" cx="136.93" cy="136.85" r="125.92"/><polygon class="a" points="247.15 211.17 30.54 211.17 24.21 189.56 254.53 189.56 247.15 211.17"/><path class="b" d="M141.53,233.83a122.09,122.09,0,0,0,203.51,0Z" transform="translate(-106.19 -30.88)"/><polygon class="b" points="243.46 208.36 34.41 208.36 15.96 169.88 259.1 169.88 243.46 208.36"/><path class="b" d="M243.12,45.83a122,122,0,1,1-122,122,122,122,0,0,1,122-122m0-7.91a129.51,129.51,0,1,0,50.56,10.21,129.07,129.07,0,0,0-50.56-10.21Z" transform="translate(-106.19 -30.88)"/><path class="c" d="M178.2,117.13l-19.76-11,2.06-2.17,9.85,5.73c2.43,1.4,4.82,2.86,6.63,4l0,0c-1.34-1.76-2.76-4-4.3-6.53l-6-9.73,2-2.15,9.92,5.71c2.32,1.34,4.61,2.7,6.51,4.05l0,0c-1.44-2-2.79-4.11-4.3-6.48l-6-9.71,2-2.1,11.67,19.58-2,2.15-10.2-5.84a66.1,66.1,0,0,1-6.19-3.88l0,0a68.3,68.3,0,0,1,4,6.15L180.23,115Z" transform="translate(-106.19 -30.88)"/><path class="c" d="M195,93l1.51,7.11L194,101.55l-4.62-22.69,3-1.72L209.84,92.3l-2.61,1.53L201.73,89Zm5.09-5.53-5-4.37c-1.14-1-2.08-2-3-2.88l-.06,0c.38,1.29.74,2.62,1,4l1.34,6.56Z" transform="translate(-106.19 -30.88)"/><path class="c" d="M209.17,69.52a40.32,40.32,0,0,1,5.72-1.94c3.94-1,7-.82,9.28.43a10.1,10.1,0,0,1,5,6.86,11.6,11.6,0,0,1-.93,9c-1.47,2.5-4.48,4.41-8.6,5.47a45.84,45.84,0,0,1-5,1Zm7.57,18.07a17.82,17.82,0,0,0,2.81-.55c5.86-1.51,8.2-5.6,6.73-11.34-1.26-5-4.91-7.47-10.71-6a16.09,16.09,0,0,0-3.14,1.11Z" transform="translate(-106.19 -30.88)"/><path class="c" d="M239.71,63.94l1,21.91-2.83.13-1-21.91Z" transform="translate(-106.19 -30.88)"/><path class="c" d="M262.77,65.88a29.4,29.4,0,0,1,5.38.91c2.93.75,4.68,1.77,5.7,3.31a5.46,5.46,0,0,1,.64,4.46A5.76,5.76,0,0,1,269.09,79l0,.09c1.49,1,2.08,2.75,2,5.09a34.81,34.81,0,0,0,.14,6.25l-2.84-.73a28.38,28.38,0,0,1-.12-5.44c.12-3.09-.73-4.49-3.2-5.22l-2.58-.66-2.36,9.2-2.74-.7ZM263,76.26l2.8.72c2.93.75,5.2-.38,5.83-2.81.7-2.74-1-4.45-3.87-5.22a11.67,11.67,0,0,0-2.78-.44Z" transform="translate(-106.19 -30.88)"/><path class="c" d="M289.16,74.51l-6.32,11.34c-2.39,4.29-1.5,7.17,1.05,8.6,2.84,1.58,5.71.72,8.07-3.51l6.32-11.34,2.5,1.39-6.23,11.17c-3.28,5.88-7.72,6.57-11.87,4.26-3.92-2.19-5.62-6.08-2.31-12l6.29-11.28Z" transform="translate(-106.19 -30.88)"/><path class="c" d="M315.21,110.81c2.12-2.21,4.67-4.87,6.69-6.71l-.07-.07c-2.39,1.21-5,2.42-8,3.68l-10.41,4.45L302,110.58l5.2-9.73c1.54-2.87,3-5.45,4.49-7.68l0,0c-2,1.82-4.83,4.22-7.36,6.32l-7.26,6-1.85-2,17-13.88,2.47,2.64-5.18,10c-1.35,2.51-2.59,4.7-3.88,6.66l.07.07c2-1.11,4.28-2.19,7-3.36l10.41-4.4,2.47,2.63-15.07,16-1.89-2Z" transform="translate(-106.19 -30.88)"/><circle class="d" cx="136.9" cy="136.89" r="24.51"/><path class="e" d="M192,208.08l20.39-29.15a9.35,9.35,0,0,1,10.38-3.58l8,2.44a9.35,9.35,0,0,0,9.33-2.33l7.22-7.21a9.35,9.35,0,0,1,8.36-2.57L270,168.42a9.35,9.35,0,0,0,6.2-1l6.22-3.36a9.35,9.35,0,0,1,4.44-1.12h13.78a9.34,9.34,0,0,1,8,4.5l24.74,40.79a3.16,3.16,0,0,1-2.7,4.8l-136.09,0A3.16,3.16,0,0,1,192,208.08Z" transform="translate(-106.19 -30.88)"/><polygon class="d" points="245.39 199.92 28.26 199.92 23.16 187.27 252.95 187.27 245.39 199.92"/><polygon class="e" points="245.39 202.03 28.26 202.03 23.16 189.38 252.95 189.38 245.39 202.03"/><polygon class="e" points="217.11 233.6 54.96 233.6 35.11 211.87 239.6 211.87 217.11 233.6"/><polygon class="d" points="217.11 230.7 54.96 230.7 35.11 208.97 239.6 208.97 217.11 230.7"/><path class="f" d="M243.12,38.78a129,129,0,1,1-129,129,129,129,0,0,1,129-129m0-7.91A137,137,0,0,0,189.82,294,137,137,0,0,0,296.42,41.64a136.07,136.07,0,0,0-53.3-10.76Z" transform="translate(-106.19 -30.88)"/><path class="e" d="M243.12,45.83a122,122,0,1,1-122,122,122,122,0,0,1,122-122m0-7.91a129.51,129.51,0,1,0,50.56,10.21,129.07,129.07,0,0,0-50.56-10.21Z" transform="translate(-106.19 -30.88)"/></svg>