<svg xmlns="http://www.w3.org/2000/svg" viewBox="0 0 273.86 273.86"><defs><style>.a{fill:#efc30a;}.b{fill:#52b1ba;}.c{fill:#e3dcc1;}.d{fill:#ed5439;}.e{fill:#2b2c3d;}.f{fill:#c5b980;}.g{fill:#9f9560;}</style></defs><title>Jordan Dana</title><circle class="a" cx="136.93" cy="136.83" r="125.92"/><polygon class="b" points="247.15 211.15 30.54 211.15 24.21 189.54 254.53 189.54 247.15 211.15"/><path class="c" d="M141.53,233.83a122.09,122.09,0,0,0,203.51,0Z" transform="translate(-106.19 -30.88)"/><polygon class="c" points="243.46 208.33 34.41 208.33 15.96 169.86 259.1 169.86 243.46 208.33"/><path class="d" d="M243.12,45.83a122,122,0,1,1-122,122,122,122,0,0,1,122-122m0-7.91a129.51,129.51,0,1,0,50.56,10.21,129.07,129.07,0,0,0-50.56-10.21Z" transform="translate(-106.19 -30.88)"/><path class="e" d="M199.25,107.11l-15.39,13.25-4.19-4.86,1.88-2.73-9.78-11.36-3,1.45L164.58,98l15.55-13.39,9.59-.18,11.16,13Zm-11.07,0,4.06-3.5.41-2.37-7.84-9.11-2.31,0-4.13,3.55Z" transform="translate(-106.19 -30.88)"/><path class="e" d="M237.38,85.49,239,91.65,224.53,95.5l-1.65-6.2,1.95-1.39-1.41-2.33-6.16,1.64,0,2.71,2.22.29,1.65,6.2-12.24,3.25-1.65-6.2,2.92-1.65.31-15.59-2.87-.11-1.66-6.24,16.49-4.38L233.65,85.6ZM217.14,82l3.63-1-3.54-5.92Z" transform="translate(-106.19 -30.88)"/><path class="e" d="M280.47,69.13l-1.31,6.33-3.31.18-4.5,21.79L263,95.7l-6.22-18.1-1.86,9,3,1.48-1.3,6.29-13.52-2.79,1.3-6.29,3.31-.18,3-14.68-3-1.48L249,62.64l12.41,2.56,5.41,17.24,1.72-8.31-3-1.48,1.31-6.33Z" transform="translate(-106.19 -30.88)"/><path class="e" d="M305.15,113.45l-3.92,5-11.82-9.22,3.95-5.06,2.28.71,1-2.53-5-3.92-2.18,1.62,1.11,1.94-3.95,5.06-10-7.79,3.95-5.06,3.08,1.33,12.61-9.17L294.62,84l4-5.09L312,89.44l-9.24,21.12ZM295.7,95.22l3,2.31,2.58-6.4Z" transform="translate(-106.19 -30.88)"/><circle class="a" cx="136.9" cy="136.86" r="24.51"/><path class="f" d="M367.57,218.3,250,217c-2.56,0,.54-16.32,2-18.42l20.39-29.15a9.35,9.35,0,0,1,10.38-3.58l8,2.44a9.35,9.35,0,0,0,9.33-2.33l7.22-7.21a9.35,9.35,0,0,1,8.36-2.57l14.32,2.74a9.35,9.35,0,0,0,6.2-1l6.22-3.36a9.35,9.35,0,0,1,4.44-1.12H360.7a9.35,9.35,0,0,1,8,4.5l7.76,12.8" transform="translate(-106.19 -30.88)"/><path class="g" d="M117.05,203.67h16.76l157.51,0L267,158.36c-2.61-4.4-7.33-6.32-11.69-4.76l-9,3.24a9.45,9.45,0,0,1-10.5-3.09l-8.13-9.57a9.54,9.54,0,0,0-9.42-3.41l-16.12,3.64a9.14,9.14,0,0,1-7-1.27l-7-4.44c-1.54-1-4.87-4.11-6.61-4.11l-13.91,2.64a10.29,10.29,0,0,0-9,6l-.48.93a9.68,9.68,0,0,1-2-1l-7-5.15c-1.54-1-3.25-2.18-5-2.18H128.62c-3.68,0-7.09,3-9,6.66l-10.81,21.36" transform="translate(-106.19 -30.88)"/><path class="f" d="M125.48,231.08l6.76-4.51s10,4.51,10,4.51l155.93,0-22.75-40c-2.61-4.4-7.33-6.32-11.69-4.76l-9,3.24a9.45,9.45,0,0,1-10.5-3.09l-8.13-9.57a9.54,9.54,0,0,0-9.42-3.41l-16.12,3.64a9.14,9.14,0,0,1-7-1.27s-16.85-11.44-21.33-11.44S171.17,182,165.38,182s-13.7-21.34-18.71-21.34c-4.73,0-9.91,5.53-13,8.55-7.63,7.46-11.62,18.3-16.42,27.64" transform="translate(-106.19 -30.88)"/><path class="g" d="M356,228.12l-21.61-.3H202.61l1.68-11.26c2.61-4.4,7.33-6.17,11.69-4.61l9,3.31a9.43,9.43,0,0,0,10.5-3.05l8.13-9.55a9.53,9.53,0,0,1,9.42-3.4l16.12,3.64a9.14,9.14,0,0,0,7-1.26s16.85-11.44,21.33-11.44,11.07,17.66,16.87,17.66S328,186.52,333,186.52c4.73,0,9.91,5.53,13,8.55,7.63,7.46,11.62,18.16,16.42,27.49" transform="translate(-106.19 -30.88)"/><polygon class="c" points="245.4 199.9 28.26 199.9 23.16 187.25 252.95 187.25 245.4 199.9"/><polygon class="b" points="245.4 203.59 28.26 203.59 23.16 190.94 252.95 190.94 245.4 203.59"/><polygon class="g" points="217.11 237.44 54.96 237.44 35.11 215.71 239.6 215.71 217.11 237.44"/><polygon class="f" points="217.11 232.7 54.96 232.7 35.11 210.97 239.6 210.97 217.11 232.7"/><path class="c" d="M243.12,38.78a129,129,0,1,1-129,129,129,129,0,0,1,129-129m0-7.91A137,137,0,0,0,189.82,294,137,137,0,0,0,296.42,41.64a136.08,136.08,0,0,0-53.3-10.76Z" transform="translate(-106.19 -30.88)"/><path class="d" d="M243.12,45.83a122,122,0,1,1-122,122,122,122,0,0,1,122-122m0-7.91a129.51,129.51,0,1,0,50.56,10.21,129.07,129.07,0,0,0-50.56-10.21Z" transform="translate(-106.19 -30.88)"/></svg>